<?xml version="1.0" encoding="UTF-8" standalone="no"?>
<!DOCTYPE svg PUBLIC "-//W3C//DTD SVG 1.1//EN" "http://www.w3.org/Graphics/SVG/1.1/DTD/svg11.dtd">
<!-- Created with Vectornator (http://vectornator.io/) -->
<svg height="100%" stroke-miterlimit="10" style="fill-rule:nonzero;clip-rule:evenodd;stroke-linecap:round;stroke-linejoin:round;" version="1.1" viewBox="0 0 76 76" width="100%" xml:space="preserve" xmlns="http://www.w3.org/2000/svg" xmlns:vectornator="http://vectornator.io" xmlns:xlink="http://www.w3.org/1999/xlink">
<defs/>
<g id="Sin-título" vectornator:layerName="Sin título">
<g opacity="1" vectornator:layerName="g">
<g opacity="1" vectornator:layerName="g">
<path d="M14.0266 12.846C9.02656 20.346 7.12656 28.546 8.42656 37.446C9.62656 45.346 13.1266 52.046 19.0266 57.446C26.9266 64.646 36.3266 67.746 46.9266 66.346C57.4266 64.946 65.5266 59.546 71.4266 50.746C69.5266 55.146 66.7266 58.946 63.2266 62.146C58.0266 66.946 51.9266 69.946 44.9266 71.046C36.0266 72.346 27.7266 70.546 20.1266 65.546C13.6266 61.246 9.12656 55.346 6.52656 47.946C4.02656 40.746 3.92656 33.446 6.22656 26.246C7.82656 21.146 10.4266 16.646 14.0266 12.846Z" fill="#33647e" fill-rule="nonzero" opacity="1" stroke="none" vectornator:layerName="path"/>
<g opacity="1" vectornator:layerName="g">
<path d="M23.0266 4.64602C23.5266 4.84602 23.8266 5.14602 24.1266 5.54602C24.2266 5.74602 24.4266 5.84602 24.6266 6.04602C24.7266 6.14602 24.8266 6.34602 25.0266 6.44602C25.2266 6.54602 25.2266 6.24602 25.4266 6.14602C25.9266 5.94602 26.4266 5.94602 26.9266 6.14602C27.7266 6.44602 28.3266 6.94602 28.9266 7.54602C29.2266 7.84602 29.6266 8.04602 29.8266 8.44602C30.4266 9.24602 31.2266 9.64602 31.9266 10.246C32.4266 10.646 32.8266 10.946 33.4266 11.246C34.2266 11.646 34.6266 12.346 34.9266 13.046C35.1266 13.446 35.3266 13.846 35.4266 14.246C35.6266 14.846 36.1266 15.346 36.4266 15.946C36.4266 15.946 36.4266 15.946 36.5266 16.046C36.5266 15.946 36.5266 15.946 36.5266 15.946C36.3266 15.046 36.5266 14.146 36.7266 13.346C36.8266 13.046 37.0266 12.746 37.1266 12.446C37.5266 11.846 38.8266 11.746 39.3266 12.246C39.4266 12.346 39.4266 12.446 39.4266 12.646C39.2266 13.346 39.2266 14.046 39.3266 14.746C39.3266 15.046 39.6266 15.346 39.6266 15.546C39.6266 16.346 40.2266 16.846 40.5266 17.546C40.9266 18.546 41.7266 19.346 42.1266 20.346C42.2266 20.546 42.4266 20.846 42.6266 20.946C43.4266 21.346 43.9266 22.146 44.3266 22.946C44.8266 23.946 45.1266 25.046 45.3266 26.246C45.4266 27.146 45.4266 27.946 45.3266 28.846C45.2266 29.446 45.2266 29.946 45.5266 30.546C46.0266 31.446 46.2266 32.346 46.2266 33.246C46.2266 33.846 46.5266 34.146 46.9266 34.446C47.2266 34.746 47.6266 34.946 48.0266 35.146C48.2266 35.246 48.3266 35.146 48.4266 35.146C49.5266 34.446 50.6266 34.346 51.8266 34.446C52.5266 34.546 53.1266 34.646 53.7266 34.946C54.0266 35.046 54.3266 35.246 54.5266 35.546C54.8266 35.946 55.2266 36.046 55.7266 36.046C55.9266 36.046 56.1266 36.046 56.4266 36.146C56.2266 36.146 56.1266 36.246 56.0266 36.246C56.6266 36.446 56.9266 37.046 57.5266 37.246C58.1266 37.446 58.7266 37.546 59.3266 37.646C59.6266 37.746 59.9266 37.746 60.2266 37.946C60.6266 38.246 60.6266 38.646 60.5266 39.046C60.4266 39.546 60.1266 39.846 59.6266 39.946C57.8266 40.146 56.7266 41.246 55.7266 42.646C54.4266 44.446 53.2266 46.446 52.1266 48.346C51.6266 49.146 51.1266 49.946 50.2266 50.446C49.9266 50.646 49.3266 50.946 48.6266 50.646C48.4266 50.646 48.5266 50.646 48.4266 50.746C48.1266 51.546 47.7266 52.346 47.1266 53.046C46.8266 53.446 46.4266 53.846 46.0266 54.146C45.7266 54.346 45.3266 54.446 45.0266 54.346C44.8266 54.346 44.6266 54.346 44.4266 54.446C43.6266 54.946 42.7266 55.346 41.7266 55.446C40.5266 55.646 39.8266 54.746 40.0266 53.646C40.1266 53.346 40.1266 52.946 39.8266 52.646C39.3266 52.046 39.5266 51.346 40.0266 50.846C40.3266 50.546 40.6266 50.346 40.9266 50.046C41.0266 49.946 41.0266 49.846 41.0266 49.746C40.8266 48.946 40.7266 48.046 40.6266 47.246C40.5266 46.146 40.6266 45.146 40.9266 44.146C41.0266 43.846 40.8266 43.746 40.6266 43.646C40.4266 43.546 40.5266 43.746 40.5266 43.846C40.5266 44.346 40.4266 44.746 40.1266 45.046C39.8266 45.346 39.7266 45.646 39.5266 45.946C39.3266 46.346 39.1266 46.846 38.8266 47.246C38.3266 48.046 37.6266 48.646 36.8266 49.246C35.7266 50.146 34.5266 50.846 33.2266 51.446C32.0266 51.946 30.9266 52.346 29.6266 52.246C28.8266 52.246 27.9266 51.446 27.6266 50.746C27.5266 50.346 27.4266 49.946 27.4266 49.546C27.4266 49.446 27.3266 49.346 27.2266 49.346C26.6266 49.246 26.1266 48.946 25.6266 48.446C25.2266 48.146 24.9266 47.746 24.6266 47.346C24.3266 46.846 24.1266 46.346 24.1266 45.846C24.1266 44.546 24.1266 43.346 24.2266 42.046C24.3266 40.646 24.7266 39.246 25.6266 38.046C25.8266 37.846 25.8266 37.646 25.6266 37.446C24.7266 36.146 24.2266 34.646 24.1266 33.046C24.1266 32.946 24.1266 32.846 24.0266 32.746C23.1266 31.846 22.6266 30.846 22.5266 29.646C22.5266 29.146 22.3266 28.646 22.2266 28.146C22.1266 27.846 21.8266 27.646 21.6266 27.346C21.1266 26.746 20.8266 26.146 20.7266 25.446C20.7266 25.346 20.6266 25.246 20.5266 25.146C20.1266 24.546 19.7266 23.846 19.8266 23.146C19.9266 22.446 19.8266 21.646 19.9266 20.946C20.0266 19.946 20.0266 18.946 20.3266 17.946C20.4266 17.646 20.3266 17.246 20.4266 16.946C20.5266 16.546 20.6266 16.246 20.8266 15.846C20.9266 15.746 20.8266 15.646 20.8266 15.446C20.5266 14.346 20.5266 13.246 20.7266 12.146C20.8266 11.846 20.7266 11.446 20.8266 11.146C20.8266 10.746 20.8266 10.346 21.4266 10.246C21.5266 10.246 21.4266 10.146 21.4266 10.046C21.3266 9.44602 21.2266 8.74602 21.6266 8.24602C21.9266 7.94602 21.8266 7.74602 21.6266 7.44602C21.3266 7.04602 21.1266 6.54602 21.1266 5.94602C21.1266 5.44602 21.5266 4.84602 22.0266 4.64602C22.0266 4.64602 22.1266 4.64602 22.1266 4.54602C22.6266 4.64602 22.8266 4.64602 23.0266 4.64602ZM28.7266 14.946C28.7266 15.046 28.8266 15.046 28.7266 14.946C28.7266 15.046 28.7266 15.046 28.8266 15.046C28.8266 15.046 28.8266 15.046 28.7266 14.946C28.8266 15.046 28.8266 14.946 28.7266 14.946L28.7266 14.946L28.7266 14.946L28.7266 14.946ZM28.4266 14.746C28.5266 14.746 28.5266 14.746 28.4266 14.746C28.5266 14.746 28.5266 14.746 28.4266 14.746C28.4266 14.646 28.4266 14.646 28.4266 14.646C28.0266 14.146 27.6266 13.746 27.2266 13.246C26.4266 12.346 25.5266 11.546 24.8266 10.446C24.7266 10.246 24.6266 9.94602 24.4266 9.84602C24.2266 9.74602 24.0266 9.94602 23.7266 10.046C23.3266 10.146 23.1266 10.146 22.8266 9.74602C22.7266 9.54602 22.6266 9.34602 22.4266 9.24602C22.2266 8.84602 22.2266 8.74602 22.6266 8.54602C22.8266 8.44602 23.0266 8.44602 23.1266 8.24602C23.0266 8.14602 22.8266 8.14602 22.6266 8.14602C22.3266 8.24602 21.9266 8.64602 21.8266 9.14602C21.8266 9.74602 21.9266 10.246 22.2266 10.646C22.4266 11.046 22.7266 11.346 22.9266 11.746C23.0266 11.946 23.1266 11.946 23.3266 11.946C24.1266 11.746 24.6266 12.146 24.8266 12.846C24.8266 12.946 24.9266 13.046 24.9266 13.146C25.2266 14.346 25.7266 15.546 26.4266 16.546C27.0266 17.446 27.7266 18.346 28.5266 19.146C29.7266 20.446 30.3266 21.946 30.9266 23.546C30.9266 23.646 31.0266 23.746 30.8266 23.746C30.7266 23.846 30.6266 23.646 30.6266 23.646C30.5266 23.446 30.4266 23.246 30.4266 23.046C29.9266 21.546 29.0266 20.146 27.9266 18.946C26.5266 17.346 25.2266 15.646 24.7266 13.546C24.7266 13.446 24.6266 13.346 24.5266 13.446C24.2266 13.546 24.0266 13.646 23.7266 13.746C23.5266 13.846 23.3266 13.846 23.2266 13.746C22.9266 13.446 22.7266 13.146 22.7266 12.646C22.7266 12.646 22.7266 12.546 22.8266 12.546C22.8266 12.546 22.8266 12.546 22.8266 12.446C22.8266 12.446 22.8266 12.446 22.7266 12.446L22.6266 12.546C22.5266 12.646 22.5266 12.846 22.4266 13.046C22.3266 13.746 22.4266 14.346 22.6266 14.946C22.8266 15.746 23.3266 16.446 23.6266 17.246C24.3266 18.746 24.9266 20.246 25.7266 21.646C25.8266 21.846 26.0266 22.046 26.0266 22.346C26.3266 24.046 26.9266 25.646 27.7266 27.146C27.7266 27.246 27.8266 27.346 27.8266 27.446C27.8266 28.246 27.9266 29.146 28.2266 29.846C29.5266 32.846 31.2266 35.646 33.7266 37.846C34.6266 38.646 35.5266 39.446 36.7266 39.946C37.3266 40.146 37.7266 40.446 38.0266 41.046C38.6266 42.046 39.6266 42.646 40.6266 43.246C40.8266 43.346 40.9266 43.346 41.0266 43.146C41.8266 41.746 42.8266 40.446 43.7266 39.146C44.2266 38.346 44.8266 37.646 45.6266 37.046C45.8266 36.846 46.1266 36.646 46.4266 36.446C46.3266 36.346 46.2266 36.246 46.1266 36.246C45.3266 35.646 44.3266 35.246 43.3266 35.046C42.5266 34.946 42.0266 34.446 41.8266 33.646C41.8266 33.446 41.8266 33.346 41.9266 33.246C42.1266 33.146 42.1266 32.946 42.0266 32.746C41.5266 31.746 41.0266 30.846 40.5266 29.946C40.3266 29.646 40.2266 29.346 39.9266 28.946C40.1266 29.046 40.2266 29.146 40.2266 29.246C40.7266 29.946 41.2266 30.546 41.9266 31.146C42.4266 31.546 42.8266 31.946 43.4266 32.146C44.1266 32.346 44.6266 32.046 44.5266 31.246C44.5266 30.746 44.5266 30.246 44.4266 29.846C44.3266 28.546 44.0266 27.246 43.4266 26.046C43.4266 25.946 43.3266 25.846 43.4266 25.746C43.7266 25.146 43.7266 24.446 43.7266 23.746C43.7266 22.546 43.2266 21.546 42.2266 20.946C41.8266 20.746 41.6266 20.346 41.4266 19.946C41.3266 19.646 41.2266 19.346 41.0266 19.146C40.7266 18.746 40.4266 18.246 40.2266 17.646C40.0266 17.246 39.9266 16.946 39.6266 16.646C39.3266 16.246 39.1266 15.946 39.2266 15.446C39.2266 15.346 39.2266 15.146 39.1266 15.046C38.9266 14.746 38.8266 14.446 38.8266 14.146C38.6266 14.146 38.3266 14.446 38.2266 14.146C37.9266 13.646 37.8266 13.146 37.9266 12.546C37.9266 12.346 38.0266 12.346 38.1266 12.346C38.3266 12.346 38.5266 12.346 38.7266 12.246C38.8266 12.246 38.9266 12.146 38.9266 12.146C38.9266 12.046 38.8266 12.046 38.7266 12.046C38.5266 11.946 38.3266 11.946 38.1266 11.946C37.4266 12.046 37.1266 12.546 36.9266 13.046C36.5266 14.046 36.5266 15.146 36.8266 16.146C37.0266 16.646 37.2266 16.846 37.7266 16.946C38.3266 17.046 38.9266 17.146 39.5266 17.146C39.2266 17.346 38.9266 17.346 38.5266 17.346C38.4266 17.346 38.3266 17.346 38.2266 17.446C38.1266 17.546 38.2266 17.646 38.3266 17.846C38.8266 18.546 39.4266 19.146 40.2266 19.546C41.4266 20.146 42.3266 21.046 43.0266 22.146C43.0266 22.246 43.1266 22.246 43.0266 22.446C42.4266 21.646 41.6266 21.246 40.8266 20.846C40.7266 20.846 40.7266 20.746 40.6266 20.746C39.4266 19.846 38.3266 18.746 37.2266 17.546C37.0266 17.346 36.8266 17.246 36.6266 17.046C36.4266 16.746 36.2266 16.346 36.0266 16.046C35.5266 15.246 34.9266 14.546 34.7266 13.646L34.7266 13.646C34.5266 13.846 34.4266 14.046 34.1266 14.246C34.2266 13.946 34.3266 13.646 34.2266 13.346C34.1266 13.146 34.0266 12.946 33.7266 13.146C33.4266 13.246 33.1266 13.246 32.8266 13.046C33.0266 12.946 33.1266 12.946 33.3266 12.846C33.6266 12.746 33.6266 12.546 33.4266 12.246C33.2266 12.046 32.9266 12.046 32.7266 12.146C32.4266 12.246 32.2266 12.346 31.9266 12.446C32.1266 11.846 32.6266 11.546 33.1266 11.346C32.8266 11.046 32.4266 10.946 32.1266 10.746C31.5266 10.246 30.9266 9.74602 30.2266 9.34602C30.1266 9.34602 30.0266 9.24602 30.0266 9.24602C30.1266 9.64602 29.9266 9.44602 29.7266 9.44602C29.5266 9.44602 29.3266 9.44602 29.2266 9.54602C29.1266 9.64602 28.9266 9.64602 28.9266 9.54602C28.9266 9.44602 29.0266 9.34602 29.1266 9.34602C29.5266 9.14602 29.8266 9.24602 30.2266 9.34602C30.2266 9.14602 30.1266 9.14602 30.1266 9.04602C29.6266 8.44602 29.0266 7.94602 28.3266 7.44602C28.1266 7.34602 28.1266 7.34602 27.9266 7.44602C27.4266 7.84602 26.9266 8.14602 26.3266 7.94602L26.2266 7.94602L26.2266 8.04602C26.4266 8.34602 26.7266 8.64602 27.0266 8.84602C28.0266 9.54602 28.8266 10.346 29.5266 11.246C29.9266 11.746 30.3266 12.146 30.8266 12.546C31.4266 12.946 31.9266 13.546 32.3266 14.246C32.8266 15.046 33.2266 15.846 33.7266 16.646C34.7266 18.146 35.7266 19.546 36.6266 20.946C36.9266 21.346 37.1266 21.746 37.3266 22.246C37.3266 22.346 37.4266 22.346 37.3266 22.446C37.2266 22.446 37.1266 22.446 37.1266 22.346C36.9266 21.546 36.3266 20.946 35.9266 20.346C34.6266 18.346 33.2266 16.446 32.1266 14.346C31.8266 13.746 31.4266 13.246 30.8266 12.846C30.3266 12.446 29.9266 12.046 29.6266 11.646C29.0266 10.946 28.4266 10.246 27.7266 9.64602C27.2266 9.24602 26.7266 8.84602 26.2266 8.44602C26.1266 8.34602 26.0266 8.34602 25.9266 8.44602C25.6266 8.64602 25.3266 8.74602 25.0266 8.94602L24.9266 8.94602C25.4266 8.44602 25.1266 8.04602 24.9266 7.74602C24.8266 7.64602 24.8266 7.54602 24.7266 7.44602C24.5266 7.24602 24.3266 7.04602 24.5266 6.64602C24.5266 6.64602 24.5266 6.54602 24.4266 6.44602C24.1266 6.64602 23.8266 6.94602 23.4266 7.04602C23.2266 7.14602 22.9266 7.14602 22.7266 7.04602C22.4266 6.84602 22.2266 6.54602 22.0266 6.24602C21.9266 5.74602 21.9266 5.54602 22.2266 5.34602C22.4266 5.24602 22.5266 5.14602 22.7266 4.94602C22.2266 4.94602 21.7266 5.44602 21.6266 5.94602C21.6266 6.64602 22.0266 7.24602 22.4266 7.74602C22.5266 7.84602 22.6266 7.84602 22.7266 7.84602C23.2266 7.74602 23.6266 7.94602 23.8266 8.44602C24.4266 9.34602 24.9266 10.346 25.6266 11.146C26.4266 12.046 27.2266 12.946 28.0266 13.746C28.5266 14.246 28.9266 14.846 29.5266 15.246C29.8266 15.446 30.0266 15.646 30.2266 15.946C30.6266 16.446 30.9266 17.046 31.1266 17.646C31.8266 19.446 32.6266 21.146 33.7266 22.746C33.8266 22.846 33.9266 22.946 33.7266 23.046C33.5266 23.146 33.5266 22.946 33.4266 22.946C32.9266 22.246 32.5266 21.546 32.1266 20.846C32.1266 20.846 32.1266 20.746 32.0266 20.746C32.0266 20.746 32.0266 20.646 31.9266 20.646C31.9266 20.546 31.8266 20.446 31.8266 20.346C31.8266 20.346 31.8266 20.246 31.7266 20.246C31.7266 20.246 31.7266 20.146 31.6266 20.146C31.6266 20.146 31.6266 20.046 31.5266 20.046C31.2266 19.246 30.9266 18.546 30.6266 17.746C30.4266 17.146 30.1266 16.646 29.7266 16.246C29.6266 16.046 29.4266 15.846 29.2266 15.846C29.2266 15.846 29.1266 15.746 29.1266 15.846C29.1266 15.946 29.1266 15.946 29.2266 15.946C29.2266 16.046 29.2266 16.046 29.1266 16.046C28.4266 16.046 28.0266 16.346 27.5266 16.846L27.5266 16.846C27.5266 16.646 27.6266 16.446 27.8266 16.246C28.1266 15.946 28.1266 15.546 28.0266 15.246C28.0266 15.146 27.9266 15.046 27.9266 14.946C28.3266 14.546 28.3266 14.646 28.4266 14.746L28.4266 14.746ZM25.5266 7.14602C25.6266 7.24602 25.5266 7.24602 25.5266 7.14602C25.6266 7.14602 25.6266 7.14602 25.5266 7.14602C25.5266 6.94602 25.4266 6.64602 25.5266 6.44602C25.5266 6.44602 25.6266 6.44602 25.5266 6.44602L25.5266 6.44602C25.1266 6.64602 25.1266 6.64602 25.3266 6.94602C25.4266 7.04602 25.5266 7.14602 25.5266 7.14602ZM47.3266 50.046C47.3266 50.046 47.3266 50.146 47.3266 50.046C47.0266 50.546 46.6266 50.946 46.2266 51.346C45.7266 51.846 45.1266 52.146 44.5266 52.346C44.0266 52.546 43.6266 52.746 43.2266 53.146C43.0266 53.346 42.8266 53.446 43.0266 53.746C43.2266 54.046 44.0266 54.246 44.3266 54.046C45.5266 53.346 46.5266 52.546 47.2266 51.346C47.7266 50.446 48.2266 49.446 48.8266 48.546C49.0266 48.346 49.1266 48.046 49.1266 47.746L49.0266 47.746C47.1266 48.546 45.1266 49.346 43.1266 49.846C42.6266 49.946 42.4266 50.646 42.7266 51.046C42.9266 51.346 43.2266 51.446 43.5266 51.546C44.1266 51.546 44.6266 51.346 45.2266 51.146C45.9266 50.946 46.6266 50.446 47.3266 50.046ZM25.2266 47.246C25.2266 47.246 25.1266 47.246 25.2266 47.246C25.1266 47.246 25.1266 47.346 25.2266 47.246C25.5266 47.846 25.9266 48.246 26.4266 48.646C26.8266 48.946 27.2266 49.146 27.7266 49.146C27.9266 49.146 27.9266 49.246 27.9266 49.346C27.9266 49.646 27.9266 49.946 28.1266 50.246C28.7266 51.246 29.7266 51.746 30.8266 51.646C33.3266 51.346 35.3266 50.246 37.0266 48.346C37.7266 47.546 38.1266 46.646 38.3266 45.646C38.4266 44.846 38.1266 44.346 37.3266 44.146C36.8266 44.046 36.3266 44.046 35.8266 44.146C35.4266 44.146 35.1266 44.346 34.8266 44.546C33.2266 45.946 31.3266 47.046 29.3266 47.646C28.7266 47.846 28.1266 47.946 27.4266 47.846C26.6266 47.746 25.9266 47.646 25.2266 47.246ZM49.1266 35.246C48.8266 35.346 48.5266 35.646 48.2266 35.846C46.9266 36.846 45.5266 37.746 44.5266 39.146C43.3266 40.646 42.3266 42.346 41.3266 43.946C41.2266 44.046 41.2266 44.146 41.2266 44.246C41.0266 44.846 41.1266 45.546 41.1266 46.146C41.1266 46.946 41.2266 47.646 41.6266 48.346C41.7266 48.446 41.7266 48.646 41.9266 48.746C42.5266 48.946 43.1266 49.046 43.7266 48.946C42.8266 47.946 42.3266 46.846 42.5266 45.846C42.6266 46.146 42.7266 46.346 42.9266 46.646C43.7266 48.046 44.9266 48.746 46.5266 48.446C47.1266 48.346 47.7266 48.046 48.2266 47.746C49.2266 47.346 49.2266 47.346 49.4266 46.246C49.4266 46.046 49.5266 45.946 49.4266 45.746C49.0266 44.846 48.7266 43.946 48.5266 43.046C48.2266 42.146 47.6266 41.546 46.8266 41.246C46.4266 41.146 46.1266 41.046 45.7266 40.946C45.6266 40.946 45.5266 40.946 45.4266 40.846C45.9266 40.846 46.4266 40.746 46.9266 40.746C47.7266 40.746 48.2266 41.046 48.5266 41.846C48.6266 42.146 48.7266 42.446 48.8266 42.646C49.1266 43.346 49.3266 43.946 49.6266 44.746C49.8266 44.046 49.9266 43.546 50.1266 42.946C50.3266 42.646 50.3266 42.346 50.0266 42.046C49.8266 41.946 49.8266 41.746 49.6266 41.546C49.2266 40.846 48.9266 40.246 48.6266 39.546C48.4266 39.046 48.2266 38.546 47.8266 38.046C47.9266 38.046 47.9266 37.946 47.9266 37.746C48.2266 36.846 48.6266 36.046 49.1266 35.246C49.2266 35.246 49.2266 35.246 49.2266 35.246C49.2266 35.146 49.2266 35.146 49.1266 35.246ZM25.0266 29.246L25.0266 29.246C25.0266 29.146 25.1266 29.046 25.2266 28.946C25.7266 28.346 26.1266 27.346 25.5266 26.446C25.1266 25.946 24.8266 25.346 24.5266 24.846C24.1266 24.246 23.5266 23.846 23.3266 23.146L23.2266 23.046C22.9266 23.046 22.9266 22.846 22.9266 22.646C22.9266 22.546 22.9266 22.446 22.9266 22.346C23.0266 21.346 23.0266 20.346 22.7266 19.346C22.6266 19.146 22.6266 19.046 22.3266 19.046C22.0266 19.046 21.7266 19.046 21.4266 18.846C21.3266 18.846 21.2266 18.846 21.3266 18.646C21.3266 18.546 21.4266 18.546 21.5266 18.546C21.8266 18.646 22.1266 18.646 22.4266 18.646C22.5266 18.646 22.6266 18.646 22.6266 18.546C22.7266 18.046 22.9266 17.546 23.1266 17.046C23.1266 16.946 23.1266 16.846 23.0266 16.746C22.7266 16.046 22.4266 15.346 22.1266 14.546C22.0266 14.346 21.7266 14.246 21.5266 14.446C21.4266 14.546 21.4266 14.746 21.3266 14.946C21.2266 15.346 21.1266 15.646 20.9266 15.946C20.7266 16.246 20.6266 16.546 20.6266 16.846C20.5266 17.346 20.4266 17.846 20.3266 18.346C20.0266 19.946 20.1266 21.446 20.0266 23.046C20.0266 23.646 20.3266 24.146 20.7266 24.646C20.8266 24.746 20.9266 24.846 20.9266 24.946C21.1266 25.946 21.7266 26.746 22.3266 27.446C22.4266 27.546 22.5266 27.546 22.5266 27.746C22.5266 28.446 22.8266 29.146 22.9266 29.846C23.0266 30.846 23.5266 31.546 24.2266 32.246C24.3266 32.346 24.4266 32.446 24.4266 32.646C24.4266 34.346 25.0266 35.846 26.0266 37.146C26.1266 37.246 26.2266 37.346 26.4266 37.446C27.5266 38.146 28.3266 39.046 28.5266 40.446C28.5266 40.646 28.5266 40.946 28.3266 41.046C28.1266 41.246 28.0266 41.546 28.0266 41.846C27.9266 42.746 28.2266 43.646 28.6266 44.446C29.1266 45.646 29.7266 46.046 31.0266 45.946C32.1266 45.846 33.1266 45.046 33.4266 43.946C33.5266 43.746 33.5266 43.446 33.3266 43.246C33.1266 43.046 32.9266 43.246 32.7266 43.346C33.5266 41.646 33.2266 39.846 31.8266 38.446C31.8266 38.546 31.7266 38.546 31.7266 38.646C31.5266 39.046 31.1266 39.246 30.6266 39.346C30.4266 39.346 30.3266 39.346 30.4266 39.046C30.5266 38.746 30.5266 38.346 30.6266 38.046C30.7266 36.446 30.3266 35.046 29.6266 33.646C29.3266 32.946 28.8266 32.446 28.2266 31.946C27.9266 31.746 27.5266 31.646 27.2266 31.946C26.9266 32.246 26.5266 32.446 26.0266 32.446C26.1266 32.346 26.2266 32.246 26.3266 32.246C26.7266 31.946 27.1266 31.646 27.3266 31.246C27.4266 31.146 27.4266 31.046 27.3266 30.946C26.9266 30.146 26.4266 29.446 25.9266 28.646C25.8266 28.546 25.7266 28.446 25.6266 28.646C25.6266 29.046 25.3266 29.246 25.0266 29.246ZM51.2266 44.646C51.2266 44.946 51.2266 45.246 51.4266 45.546C51.6266 45.946 51.8266 45.946 52.2266 45.746C52.5266 45.546 52.7266 45.146 53.0266 44.846C53.8266 43.746 54.4266 42.446 55.0266 41.246C55.3266 40.546 55.7266 39.846 56.3266 39.246C56.8266 38.646 57.5266 38.346 58.3266 38.446C59.0266 38.546 59.6266 38.846 60.1266 39.246C60.2266 39.346 60.3266 39.446 60.4266 39.346C60.7266 39.146 60.7266 38.746 60.6266 38.446C60.6266 38.146 60.4266 38.046 60.1266 37.946C59.8266 37.846 59.4266 37.746 59.1266 37.746C58.2266 37.546 57.3266 37.346 56.6266 36.646C56.5266 36.546 56.4266 36.546 56.3266 36.646C55.3266 36.946 54.5266 37.646 54.0266 38.546C53.8266 38.946 53.6266 39.246 53.3266 39.546C52.9266 39.946 52.5266 40.346 52.2266 40.846C51.7266 42.146 51.3266 43.346 51.2266 44.646ZM50.1266 34.846C50.5266 35.046 50.8266 35.046 51.2266 35.046C51.5266 35.046 51.8266 34.846 52.0266 35.046C52.2266 35.246 51.9266 35.546 51.8266 35.846C51.0266 37.146 50.4266 38.546 50.7266 40.246C50.7266 40.546 50.9266 40.846 51.1266 41.046C51.2266 41.146 51.3266 41.146 51.4266 41.046C51.7266 40.646 52.0266 40.246 52.4266 39.946C52.7266 39.746 52.9266 39.446 53.1266 39.046C53.5266 38.046 54.1266 37.346 55.0266 36.646C55.2266 36.546 55.4266 36.346 55.6266 36.246C55.3266 36.146 55.0266 35.946 54.8266 35.746C54.5266 35.346 54.1266 35.146 53.6266 35.046C53.2266 34.946 52.8266 34.846 52.5266 34.846C51.5266 34.646 50.8266 34.646 50.1266 34.846ZM24.1266 20.646C23.8266 20.246 23.8266 19.846 23.7266 19.446C23.7266 18.946 23.7266 18.446 23.3266 18.046C23.2266 18.446 23.1266 18.746 22.9266 19.046C22.9266 19.146 22.9266 19.246 22.9266 19.246C23.2266 20.146 23.3266 21.146 23.1266 22.146C23.1266 22.346 23.0266 22.646 23.1266 22.846C23.3266 23.146 23.4266 23.446 23.6266 23.646C24.4266 24.546 25.0266 25.546 25.7266 26.546C25.7266 26.646 25.8266 26.746 25.9266 26.746C26.0266 26.346 26.1266 25.946 26.1266 25.446C26.0266 24.346 25.6266 23.246 25.4266 22.246C25.3266 21.846 25.2266 21.446 24.9266 21.046C24.7266 20.846 24.5266 20.746 24.3266 20.846C24.1266 20.946 23.9266 20.946 23.6266 20.946C23.5266 20.946 23.5266 20.946 23.5266 20.846C23.5266 20.746 23.5266 20.746 23.6266 20.746C23.8266 20.746 24.0266 20.646 24.1266 20.646ZM25.1266 47.246C25.2266 46.846 25.2266 46.546 25.3266 46.246C25.7266 43.946 26.2266 41.646 27.2266 39.446C27.2266 39.346 27.3266 39.246 27.3266 39.246C27.2266 38.846 27.0266 38.446 26.6266 38.246C26.5266 38.146 26.4266 38.146 26.3266 38.346C26.1266 38.646 25.9266 38.846 25.8266 39.146C25.2266 40.346 24.9266 41.546 24.9266 42.846C24.9266 43.946 24.8266 45.146 24.9266 46.246C24.7266 46.446 24.8266 46.846 25.1266 47.246ZM21.3266 15.246C21.4266 15.046 21.4266 14.946 21.4266 14.846C21.5266 14.546 21.7266 14.346 22.0266 14.346C22.2266 14.346 22.2266 14.246 22.2266 14.046C22.1266 13.446 22.2266 12.846 22.7266 12.346C22.8266 12.246 22.8266 12.146 22.7266 12.046C22.4266 11.646 22.2266 11.246 22.0266 10.846C22.0266 10.746 21.9266 10.646 21.8266 10.646C21.7266 10.646 21.6266 10.746 21.5266 10.846C21.5266 10.946 21.4266 11.046 21.4266 11.246C21.4266 11.646 21.4266 11.946 21.3266 12.346C21.0266 13.246 21.0266 14.246 21.3266 15.246ZM24.1266 6.04602C24.1266 6.04602 24.1266 5.94602 24.1266 6.04602C23.9266 5.74602 23.7266 5.54602 23.5266 5.24602C23.3266 5.04602 23.1266 4.94602 22.8266 5.24602C22.7266 5.34602 22.5266 5.44602 22.4266 5.54602C22.2266 5.64602 22.2266 5.84602 22.3266 5.94602C22.7266 6.74602 23.1266 6.84602 23.7266 6.34602C23.8266 6.34602 23.9266 6.24602 24.1266 6.04602C24.0266 6.14602 24.1266 6.04602 24.1266 6.04602ZM26.6266 7.64602C27.0266 7.54602 27.4266 7.44602 27.7266 7.14602C27.8266 7.04602 27.8266 7.04602 27.7266 6.94602C27.3266 6.74602 27.0266 6.44602 26.5266 6.34602C26.3266 6.24602 26.1266 6.24602 26.0266 6.44602C25.9266 6.64602 25.7266 6.74602 25.9266 7.04602C26.0266 7.24602 26.2266 7.54602 26.6266 7.64602ZM23.9266 12.446C23.5266 12.446 23.0266 12.746 23.0266 12.946C23.0266 13.246 23.4266 13.646 23.6266 13.646C23.9266 13.646 24.5266 13.346 24.5266 13.246C24.5266 12.846 24.2266 12.446 23.9266 12.446ZM23.5266 9.84602C23.7266 9.74602 23.9266 9.64602 24.1266 9.64602C24.2266 9.64602 24.2266 9.54602 24.1266 9.44602C23.9266 9.14602 23.7266 8.84602 23.5266 8.44602C23.5266 8.34602 23.4266 8.34602 23.4266 8.44602C23.2266 8.64602 22.7266 8.64602 22.7266 8.84602C22.7266 9.14602 23.0266 9.34602 23.2266 9.64602C23.2266 9.74602 23.3266 9.84602 23.5266 9.84602ZM38.4266 13.246C38.4266 13.446 38.5266 13.746 38.6266 14.046C38.6266 14.146 38.7266 14.246 38.8266 14.246C38.9266 14.246 39.0266 14.146 39.0266 14.046C39.0266 13.746 39.0266 13.346 39.1266 13.046C39.1266 12.946 39.1266 12.946 39.0266 12.846C38.7266 12.746 38.4266 12.946 38.4266 13.246Z" fill="#33647e" fill-rule="nonzero" opacity="1" stroke="none" vectornator:layerName="path"/>
<path d="M37.2266 33.346C36.7266 33.046 36.3266 32.746 35.9266 32.446C35.3266 31.946 35.2266 31.346 35.3266 30.646C35.5266 29.746 35.2266 29.146 34.6266 28.546C34.2266 28.146 33.7266 27.746 33.4266 27.246C33.2266 27.046 33.1266 26.746 33.1266 26.346C33.8266 27.246 34.7266 27.846 35.6266 28.446C36.4266 28.946 36.6266 29.546 36.3266 30.446C35.9266 31.546 36.3266 32.346 37.0266 33.146C37.1266 33.046 37.2266 33.146 37.2266 33.346Z" fill="#33647e" fill-rule="nonzero" opacity="1" stroke="none" vectornator:layerName="path"/>
<path d="M41.0266 38.246C40.9266 37.146 40.6266 36.246 40.0266 35.446C39.6266 34.846 39.9266 34.246 40.8266 34.146C40.5266 34.646 40.6266 35.046 40.9266 35.446C41.2266 35.946 41.5266 36.446 41.6266 37.046C41.6266 37.446 41.5266 37.946 41.0266 38.246Z" fill="#33647e" fill-rule="nonzero" opacity="1" stroke="none" vectornator:layerName="path"/>
<path d="M40.8266 24.546C40.5266 22.946 40.1266 21.546 39.0266 20.346C40.7266 20.646 41.7266 22.946 40.8266 24.546Z" fill="#33647e" fill-rule="nonzero" opacity="1" stroke="none" vectornator:layerName="path"/>
<path d="M32.1266 20.646C32.1266 20.646 32.1266 20.746 32.2266 20.746C32.2266 20.746 32.2266 20.846 32.2266 20.946C31.8266 20.346 31.4266 19.746 31.0266 19.246C30.6266 18.746 30.3266 18.046 29.7266 17.746C30.0266 17.546 30.3266 17.246 30.4266 16.746C30.8266 17.846 31.2266 18.846 31.7266 19.746C31.7266 19.746 31.7266 19.846 31.8266 19.846C31.8266 19.846 31.8266 19.946 31.9266 19.946C31.9266 19.946 31.9266 20.046 32.0266 20.046C32.0266 20.146 32.1266 20.246 32.1266 20.346C32.1266 20.646 32.1266 20.646 32.1266 20.646Z" fill="#33647e" fill-rule="nonzero" opacity="1" stroke="none" vectornator:layerName="path"/>
<path d="M37.9266 23.446C38.8266 24.446 39.1266 25.646 39.1266 26.946C38.4266 25.846 37.9266 24.746 37.9266 23.446Z" fill="#33647e" fill-rule="nonzero" opacity="1" stroke="none" vectornator:layerName="path"/>
<path d="M31.1266 15.046C31.5266 14.546 31.4266 14.446 30.7266 13.846C30.7266 13.746 30.7266 13.746 30.8266 13.746C31.2266 13.646 32.0266 14.246 32.0266 14.646C32.0266 14.846 31.9266 15.046 31.7266 15.046C31.5266 15.046 31.3266 15.146 31.1266 15.046Z" fill="#33647e" fill-rule="nonzero" opacity="1" stroke="none" vectornator:layerName="path"/>
<path d="M28.7266 20.646C29.0266 21.346 29.3266 21.846 29.6266 22.446C29.1266 22.046 28.7266 21.446 28.0266 21.446C28.3266 21.246 28.6266 21.046 28.7266 20.646Z" fill="#33647e" fill-rule="nonzero" opacity="1" stroke="none" vectornator:layerName="path"/>
<path d="M30.0266 16.946C29.8266 17.446 29.4266 17.746 28.9266 18.046C28.8266 18.046 28.7266 18.046 28.6266 18.046C28.5266 18.046 28.4266 17.946 28.6266 17.846C29.1266 17.546 29.5266 17.146 30.0266 16.946L30.0266 16.946Z" fill="#33647e" fill-rule="nonzero" opacity="1" stroke="none" vectornator:layerName="path"/>
<path d="M26.5266 20.046C26.3266 20.046 26.1266 20.046 26.0266 19.846C26.0266 19.846 25.9266 19.746 26.0266 19.646C26.0266 19.646 26.1266 19.546 26.2266 19.646C26.6266 19.846 27.0266 19.646 27.3266 19.546C27.4266 19.546 27.5266 19.446 27.6266 19.546C27.7266 19.746 27.5266 19.746 27.4266 19.746C27.1266 19.946 26.8266 20.046 26.5266 20.046Z" fill="#33647e" fill-rule="nonzero" opacity="1" stroke="none" vectornator:layerName="path"/>
<path d="M24.1266 16.046L24.1266 16.046C23.9266 16.046 23.8266 16.046 23.8266 15.946C23.8266 15.846 23.9266 15.746 24.0266 15.746C24.4266 15.746 24.7266 15.746 25.0266 15.346C25.1266 15.246 25.1266 15.346 25.2266 15.346C25.3266 15.446 25.2266 15.446 25.2266 15.546C24.9266 15.946 24.5266 16.046 24.1266 16.046Z" fill="#33647e" fill-rule="nonzero" opacity="1" stroke="none" vectornator:layerName="path"/>
<path d="M27.4266 18.646C27.4266 18.846 27.3266 18.946 27.2266 18.846C26.9266 18.846 26.6266 18.946 26.3266 19.046C26.2266 19.046 26.1266 19.146 26.1266 19.046C26.0266 18.946 26.1266 18.846 26.2266 18.846C26.5266 18.746 26.9266 18.546 27.3266 18.646C27.3266 18.646 27.4266 18.646 27.4266 18.646Z" fill="#33647e" fill-rule="nonzero" opacity="1" stroke="none" vectornator:layerName="path"/>
<path d="M30.7266 13.046C30.3266 13.246 30.3266 13.646 30.3266 14.046C30.2266 13.846 30.1266 13.646 30.1266 13.446C30.0266 13.046 30.1266 12.846 30.7266 13.046Z" fill="#33647e" fill-rule="nonzero" opacity="1" stroke="none" vectornator:layerName="path"/>
<path d="M28.2266 17.046C28.4266 16.646 28.9266 16.246 29.3266 16.046C29.1266 16.246 28.5266 16.846 28.2266 17.046L28.2266 17.046Z" fill="#33647e" fill-rule="nonzero" opacity="1" stroke="none" vectornator:layerName="path"/>
<path d="M29.3266 16.746C29.3266 16.446 29.4266 16.246 29.7266 16.146C29.8266 16.046 29.9266 16.146 29.8266 16.246C29.7266 16.546 29.6266 16.646 29.3266 16.746Z" fill="#33647e" fill-rule="nonzero" opacity="1" stroke="none" vectornator:layerName="path"/>
<path d="M27.8266 16.546L27.8266 16.546L27.8266 16.546C27.7266 16.546 27.8266 16.546 27.8266 16.546L27.8266 16.546Z" fill="#33647e" fill-rule="nonzero" opacity="1" stroke="none" vectornator:layerName="path"/>
<path d="M40.3266 29.046C40.3266 29.046 40.3266 29.146 40.3266 29.046C40.3266 29.046 40.2266 29.046 40.3266 29.046L40.3266 29.046L40.3266 29.046Z" fill="#33647e" fill-rule="nonzero" opacity="1" stroke="none" vectornator:layerName="path"/>
<path d="M43.4266 22.746C43.4266 22.746 43.3266 22.646 43.4266 22.746C43.3266 22.646 43.3266 22.646 43.4266 22.746C43.4266 22.646 43.4266 22.646 43.4266 22.746L43.4266 22.746Z" fill="#33647e" fill-rule="nonzero" opacity="1" stroke="none" vectornator:layerName="path"/>
<path d="M39.0266 20.346L39.0266 20.346L39.0266 20.246L39.0266 20.346Z" fill="#33647e" fill-rule="nonzero" opacity="1" stroke="none" vectornator:layerName="polygon"/>
<path d="M30.0266 16.846L30.0266 16.846C30.1266 16.846 30.1266 16.946 30.0266 16.846C30.0266 16.946 30.0266 16.846 30.0266 16.846Z" fill="#33647e" fill-rule="nonzero" opacity="1" stroke="none" vectornator:layerName="path"/>
<path d="M21.7266 24.246C21.6266 24.246 21.6266 24.246 21.6266 24.146C21.6266 24.046 21.6266 24.046 21.7266 23.946C22.0266 23.846 22.3266 23.646 22.5266 23.346C22.5266 23.246 22.6266 23.246 22.7266 23.346C22.8266 23.346 22.8266 23.446 22.8266 23.446C22.6266 23.646 22.0266 24.246 21.7266 24.246Z" fill="#33647e" fill-rule="nonzero" opacity="1" stroke="none" vectornator:layerName="path"/>
<path d="M47.3266 50.046L47.3266 50.046L47.3266 50.046C47.3266 50.146 47.3266 50.046 47.3266 50.046Z" fill="#33647e" fill-rule="nonzero" opacity="1" stroke="none" vectornator:layerName="path"/>
</g>
</g>
</g>
</g>
</svg>
