<svg width="45" height="44" viewBox="0 0 45 44" fill="none" xmlns="http://www.w3.org/2000/svg">
<path d="M30.0996 13.5L28.5996 12L27.0996 13.5L25.5996 12L24.0996 13.5L22.5996 12L21.0996 13.5L19.5996 12L18.0996 13.5L16.5996 12L15.0996 13.5L13.5996 12V32L15.0996 30.5L16.5996 32L18.0996 30.5L19.5996 32L21.0996 30.5L22.5996 32L24.0996 30.5L25.5996 32L27.0996 30.5L28.5996 32L30.0996 30.5L31.5996 32V12L30.0996 13.5ZM29.5996 29.09H15.5996V14.91H29.5996V29.09ZM16.5996 25H28.5996V27H16.5996V25ZM16.5996 21H28.5996V23H16.5996V21ZM16.5996 17H28.5996V19H16.5996V17Z" fill="#33647E"/>
</svg>
