<svg width="80" height="20" viewBox="0 0 80 20" fill="none" xmlns="http://www.w3.org/2000/svg">
<path d="M36.2784 5.6002C36.2784 6.36648 35.6573 6.98781 34.8908 6.98781C34.1245 6.98781 33.5032 6.36648 33.5032 5.6002C33.5032 4.83391 34.1245 4.21259 34.8908 4.21259C35.6573 4.21259 36.2784 4.83391 36.2784 5.6002Z" fill="#6C757D"/>
<path d="M36.3884 14.2123C36.3884 15.0398 35.7173 15.7106 34.8901 15.7106C34.0623 15.7106 33.3915 15.0398 33.3915 14.2123C33.3915 13.3845 34.0623 12.7137 34.8901 12.7137C35.7173 12.7137 36.3884 13.3845 36.3884 14.2123Z" fill="#6C757D"/>
<path d="M50.7629 15.7106H48.4585V0H50.7629V15.7106Z" fill="#6C757D"/>
<path d="M55.9085 15.7106H53.6041V4.26807H55.9085V15.7106Z" fill="#6C757D"/>
<path d="M55.9085 2.84723H53.6041V0.00552368H55.9085V2.84723Z" fill="#6C757D"/>
<path d="M26.9781 4.69798C26.0377 5.15435 25.4181 5.89739 25.1402 6.28504V4.35808H22.8363V15.7106H25.1414L25.1402 8.25349C25.5633 7.64016 26.7255 6.12333 27.8784 6.12333C29.7674 6.12333 29.7376 7.57318 29.7376 7.90983V15.7106H32.0487L32.042 7.90983C32.2202 4.19212 28.9403 3.74575 26.9781 4.69798Z" fill="#6C757D"/>
<path d="M45.594 4.82319V6.68142C45.594 6.68142 40.221 4.37381 40.0241 9.80729C39.8271 15.2408 45.594 13.461 45.594 13.461V15.297C45.594 15.297 40.221 17.0203 38.3363 13.4328C36.4516 9.84528 38.3363 6.62493 38.3363 6.62493C38.3363 6.62493 40.3615 3.01245 45.594 4.82319Z" fill="#6C757D"/>
<path d="M66.8453 4.85063V6.70112C66.8453 6.70112 61.472 4.40326 61.2753 9.81399C61.0784 15.225 66.8453 13.4527 66.8453 13.4527V15.2812C66.8453 15.2812 61.472 16.9972 59.5873 13.4247C57.7026 9.85198 59.5873 6.64488 59.5873 6.64488C59.5873 6.64488 61.6127 3.04763 66.8453 4.85063Z" fill="#6C757D"/>
<path d="M79.1362 15.7106L74.2039 9.94871L78.2547 4.55723H75.9666L71.9907 9.54958V0H69.6866V15.7106H71.9907V10.6935L76.4168 15.7106H79.1362Z" fill="#6C757D"/>
<path d="M17.1857 10.0074C17.1842 6.00329 13.9921 2.80044 10.01 2.80769C6.04509 2.81494 2.78525 6.07827 2.797 10.0282C2.809 13.9518 6.13006 17.2816 10.0302 17.2804C13.9634 17.2791 17.1872 14.0023 17.1857 10.0074ZM19.9942 10.1071C19.9462 15.5104 15.379 20.0281 9.99373 19.9999C4.60449 19.9716 0.0150298 15.3997 3.39662e-05 10.0444C-0.0147119 4.62643 4.77394 -0.0962479 10.1774 0.00722311C15.5554 0.110444 20.0422 4.72665 19.9942 10.1071Z" fill="#6C757D"/>
<path d="M11.4983 14.2578H8.51941V5.74817H11.4983V14.2578Z" fill="#6C757D"/>
</svg>
