<svg width="116" height="30" viewBox="0 0 116 30" fill="none" xmlns="http://www.w3.org/2000/svg">
<path d="M52.783 8.14806C52.783 9.26297 51.8793 10.167 50.7641 10.167C49.6491 10.167 48.7451 9.26297 48.7451 8.14806C48.7451 7.03315 49.6491 6.12915 50.7641 6.12915C51.8793 6.12915 52.783 7.03315 52.783 8.14806Z" fill="#DA473E"/>
<path d="M52.9441 20.6782C52.9441 21.8822 51.9677 22.8582 50.764 22.8582C49.5597 22.8582 48.5837 21.8822 48.5837 20.6782C48.5837 19.4738 49.5597 18.4978 50.764 18.4978C51.9677 18.4978 52.9441 19.4738 52.9441 20.6782Z" fill="#DA473E"/>
<path d="M73.8575 22.8582H70.5048V0H73.8575V22.8582Z" fill="#221F20"/>
<path d="M81.3444 22.8583H77.9917V6.20996H81.3444V22.8583Z" fill="#221F20"/>
<path d="M81.3444 4.1426H77.9917V0.00805664H81.3444V4.1426Z" fill="#221F20"/>
<path d="M39.252 6.83535C37.8837 7.49935 36.9822 8.58045 36.5779 9.14445V6.34081H33.2259V22.8583H36.5797L36.5779 12.0084C37.1935 11.1161 38.8844 8.90917 40.5619 8.90917C43.3102 8.90917 43.2669 11.0186 43.2669 11.5084V22.8583H46.6295L46.6197 11.5084C46.8789 6.09936 42.107 5.4499 39.252 6.83535Z" fill="#221F20"/>
<path d="M66.3368 7.0176V9.72124C66.3368 9.72124 58.5193 6.36378 58.2328 14.2692C57.9462 22.1747 66.3368 19.5852 66.3368 19.5852V22.2565C66.3368 22.2565 58.5193 24.7638 55.7771 19.5441C53.0349 14.3245 55.7771 9.63905 55.7771 9.63905C55.7771 9.63905 58.7237 4.38306 66.3368 7.0176Z" fill="#221F20"/>
<path d="M97.2575 7.05738V9.74975C97.2575 9.74975 89.4397 6.40647 89.1535 14.2788C88.867 22.1516 97.2575 19.573 97.2575 19.573V22.2334C97.2575 22.2334 89.4397 24.7301 86.6975 19.5323C83.9553 14.3341 86.6975 9.66793 86.6975 9.66793C86.6975 9.66793 89.6444 4.4341 97.2575 7.05738Z" fill="#221F20"/>
<path d="M115.14 22.8582L107.964 14.4749L113.857 6.63055H110.528L104.744 13.8942V0H101.391V22.8582H104.744V15.5585L111.183 22.8582H115.14Z" fill="#221F20"/>
<path d="M25.0044 14.5603C25.0022 8.73448 20.3579 4.07449 14.564 4.08504C8.79532 4.09558 4.05241 8.84358 4.0695 14.5905C4.08696 20.2992 8.91895 25.1439 14.5935 25.1421C20.316 25.1403 25.0066 20.3727 25.0044 14.5603ZM29.0906 14.7054C29.0208 22.5669 22.3757 29.1399 14.5404 29.0989C6.69932 29.0578 0.0218676 22.4058 4.94192e-05 14.6141C-0.0214051 6.73121 6.94587 -0.140061 14.8077 0.0104848C22.6324 0.160667 29.1604 6.87703 29.0906 14.7054Z" fill="#DA473E"/>
<path d="M16.7302 20.7444H12.396V8.36328H16.7302V20.7444Z" fill="#DA473E"/>
</svg>
