<?xml version="1.0" encoding="utf-8"?>
<!-- Generator: Adobe Illustrator 25.2.1, SVG Export Plug-In . SVG Version: 6.00 Build 0)  -->
<svg version="1.1" id="Layer_1" xmlns="http://www.w3.org/2000/svg" xmlns:xlink="http://www.w3.org/1999/xlink" x="0px" y="0px"
	 viewBox="0 0 223 76" style="enable-background:new 0 0 223 76;" xml:space="preserve">
<style type="text/css">
	.st0{fill:#33647E;}
</style>
<g>
	<g>
		<path class="st0" d="M122.9,61.4c-1.6,0-3-0.2-4.3-0.9c-1.1-0.5-2.1-1.3-2.9-2.3c-0.8-1-1.3-2-1.6-3.2c-0.2-0.8-0.2-1.6-0.1-2.4
			c0.1-1.5,0.7-2.7,1.5-3.9c0.8-1.1,1.7-1.9,2.9-2.5c1-0.5,2-0.8,3.1-0.9c0.7-0.1,1.4-0.1,2.1-0.1c2,0.1,3.8,0.7,5.3,1.9
			c0.5,0.4,0.9,0.9,1.3,1.5c0.1,0.2,0.1,0.2-0.1,0.3c-0.4,0.3-0.9,0.5-1.3,0.8c-0.1,0.1-0.2,0-0.3,0c-0.8-1-1.7-1.6-2.8-2.1
			c-0.6-0.2-1.2-0.3-1.9-0.4c-0.5,0-1-0.1-1.4,0c-1.8,0.1-3.3,0.7-4.6,2c-1,1.1-1.6,2.3-1.7,3.8c-0.1,1.9,0.6,3.5,1.9,4.8
			c1,1,2.2,1.5,3.6,1.7c1.4,0.2,2.7,0.1,4-0.4c0.7-0.3,1.4-0.7,2-1.2c0.3-0.3,0.7-0.6,0.9-0.9c0.1-0.1,0.1-0.1,0.2,0
			c0.5,0.3,0.9,0.6,1.4,0.9c0.2,0.1,0.1,0.2,0,0.3c-0.6,0.8-1.2,1.4-2,1.9c-1,0.7-2.2,1.1-3.4,1.3C124.1,61.4,123.5,61.5,122.9,61.4
			z"/>
		<path class="st0" d="M134,50.5c0-1.4,0-2.8,0-4.3c0-0.6,0-0.6,0.6-0.6c0.4,0,0.8,0,1.2,0c0.2,0,0.4,0,0.3,0.3c0,0.2,0,0.3,0,0.5
			c0,2.7,0,5.5,0,8.2c0,1,0.2,2.1,0.8,3c0.8,1.1,1.9,1.7,3.2,1.9c1,0.2,2,0.1,2.9-0.3c1.4-0.6,2.4-1.6,2.6-3.1
			c0.2-0.9,0.2-1.8,0.2-2.7c0-2.5,0-4.9,0-7.4c0-0.3,0.1-0.4,0.3-0.3c0.5,0,1,0,1.5,0c0.2,0,0.2,0,0.2,0.2c0,2.9,0.1,5.8,0,8.7
			c0,1.2-0.2,2.4-0.8,3.5c-0.8,1.6-2.2,2.6-3.9,3.1c-1,0.3-1.9,0.3-2.9,0.2c-1.2-0.1-2.4-0.4-3.5-1.1c-1.4-1-2.2-2.3-2.6-4
			c-0.2-1.2-0.2-2.4-0.2-3.5C134,52,134,51.2,134,50.5z"/>
		<path class="st0" d="M123.4,17.1c0.4-0.5,0.8-0.9,1.2-1.2c0.8-0.6,1.6-0.9,2.6-1c1.1-0.1,2.1,0.1,3.1,0.6c1.1,0.7,1.7,1.8,1.9,3
			c0.2,1.2,0.1,2.5,0.1,3.8c0,1.4,0,2.7,0,4.1c0,0.2-0.1,0.3-0.3,0.3c-0.3,0-0.6,0-0.9,0c-0.2,0-0.3-0.1-0.3-0.3c0-1.2,0-2.5,0-3.8
			c0-0.9,0-1.8,0-2.7c-0.1-0.9-0.1-1.9-0.7-2.6c-0.5-0.7-1.2-1-2.1-1c-0.6,0-1.2,0-1.8,0.2c-1.5,0.5-2.6,2-2.7,3.6
			c-0.2,2.1-0.1,4.2-0.1,6.3c0,0.3-0.1,0.4-0.4,0.4c-0.3,0-0.6,0-0.8,0c-0.3,0-0.3-0.1-0.3-0.3c0-1.8,0-3.6,0-5.4c0-1.9,0-3.7,0-5.6
			c0-0.3,0.1-0.3,0.3-0.3c0.3,0,0.6,0,0.9,0c0.3,0,0.3,0.1,0.3,0.4C123.3,16,123.3,16.6,123.4,17.1
			C123.3,17.1,123.3,17.2,123.4,17.1C123.3,17.2,123.4,17.1,123.4,17.1z"/>
		<path class="st0" d="M87.6,47.7c0.4-0.4,0.6-0.7,0.9-1c0.7-0.7,1.5-1.3,2.6-1.4c0.8-0.1,1.6,0,2.4,0.4c0.1,0.1,0.1,0.1,0,0.2
			c-0.3,0.5-0.6,0.9-0.9,1.4c-0.1,0.1-0.1,0.1-0.3,0.1c-0.7-0.3-1.4-0.3-2,0c-0.7,0.3-1.3,0.9-1.7,1.6c-0.5,0.9-0.8,1.9-0.8,2.9
			c-0.2,2.9-0.1,5.8-0.1,8.7c0,0.3-0.1,0.4-0.4,0.4c-0.5,0-1,0-1.5,0c-0.2,0-0.2,0-0.2-0.2c0-0.2,0-0.3,0-0.5c0-4.8,0-9.6,0-14.3
			c0-0.3,0.1-0.4,0.4-0.4c0.5,0,1,0,1.5,0c0.2,0,0.3,0.1,0.3,0.3C87.6,46.5,87.6,47.1,87.6,47.7z"/>
		<path class="st0" d="M173.6,47.7c0.9-1.2,1.9-2.2,3.4-2.4c0.8-0.1,1.6,0,2.3,0.4c0.1,0.1,0.2,0.1,0.1,0.3
			c-0.3,0.5-0.6,0.9-0.9,1.3c-0.1,0.1-0.2,0.1-0.3,0.1c-0.6-0.2-1.3-0.3-1.9,0c-0.8,0.3-1.4,0.9-1.9,1.7c-0.4,0.8-0.7,1.6-0.8,2.5
			c-0.3,2.6-0.2,5.1-0.2,7.7c0,0.5,0,1,0,1.5c0,0.2,0,0.3-0.2,0.3c-0.5,0-1.1,0-1.6,0c-0.2,0-0.2,0-0.2-0.2c0,0,0-0.1,0-0.2
			c0-4.9,0-9.8,0-14.7c0-0.3,0.1-0.4,0.4-0.4c0.4,0,0.9,0,1.4,0c0.3,0,0.3,0.1,0.3,0.3c0,0.5,0,1.1,0,1.6
			C173.5,47.6,173.4,47.7,173.6,47.7C173.6,47.8,173.6,47.7,173.6,47.7z"/>
		<path class="st0" d="M152.7,27.1c-1.3,0-2.5-0.5-3.4-1.4c-0.2-0.2-0.2-0.3,0-0.5c0.2-0.2,0.4-0.5,0.6-0.7c0.1-0.1,0.2-0.2,0.4,0
			c0.6,0.5,1.2,1,2,1.1c1,0.2,2.5-0.5,2.6-1.8c0-0.7-0.3-1.2-0.9-1.6c-0.8-0.5-1.7-0.9-2.5-1.4c-0.8-0.5-1.4-1.1-1.7-2
			c-0.3-1.1-0.1-2,0.7-2.9c0.9-1.1,2.8-1.3,4.1-0.7c0.6,0.3,1.1,0.6,1.5,1c0.2,0.2,0.2,0.3,0,0.5c-0.2,0.1-0.4,0.3-0.5,0.5
			c-0.2,0.3-0.4,0.2-0.6,0c-0.5-0.4-1-0.8-1.7-0.9c-0.9-0.1-1.8,0.1-2.1,1c-0.2,0.5-0.1,1,0.3,1.5c0.4,0.5,0.9,0.8,1.4,1
			c0.8,0.4,1.5,0.8,2.2,1.3c1.5,1.1,1.7,3.1,0.6,4.5C154.9,26.6,153.9,27.1,152.7,27.1z"/>
		<path class="st0" d="M74.7,26c0-3.5,0-7,0-10.5c0-0.3,0.1-0.4,0.4-0.4c0.3,0,0.6,0,0.9,0c0.2,0,0.2,0.1,0.2,0.2c0,0.1,0,0.1,0,0.2
			c0,7,0,13.9,0,20.9c0,0.4,0,0.4-0.4,0.4c-0.3,0-0.6,0-0.9,0c-0.2,0-0.3-0.1-0.3-0.3c0-1.4,0-2.9,0-4.3
			C74.7,30.2,74.7,28.1,74.7,26z"/>
		<path class="st0" d="M96,16.8c0.5-0.7,1-1.3,1.8-1.6c0.8-0.4,1.7-0.4,2.6,0c0.1,0.1,0.1,0.1,0.1,0.2c-0.2,0.3-0.4,0.6-0.6,0.9
			c-0.1,0.1-0.2,0.2-0.3,0.1c-1.3-0.3-2.1,0.1-2.8,1.2c-0.4,0.7-0.6,1.5-0.6,2.4C96,22.2,96,24.3,96,26.4c0,0.3-0.1,0.4-0.3,0.3
			c-0.3,0-0.6,0-0.9,0c-0.3,0-0.3-0.1-0.3-0.4c0-3.3,0-6.6,0-10c0-0.4,0-0.7,0-1.1c0-0.1,0-0.2,0.2-0.2c0.4,0,0.8,0,1.2,0
			c0.2,0,0.2,0.1,0.2,0.2C96,15.9,96,16.3,96,16.8z"/>
		<path class="st0" d="M117,21c0-1.8,0-3.7,0-5.5c0-0.3,0.1-0.3,0.3-0.3c0.3,0,0.7,0,1,0c0.2,0,0.3,0.1,0.2,0.2c0,0.1,0,0.1,0,0.2
			c0,3.6,0,7.2,0,10.8c0,0.3-0.1,0.4-0.4,0.4c-0.3,0-0.6,0-0.9,0c-0.2,0-0.3-0.1-0.3-0.3C117,24.6,117,22.8,117,21z"/>
		<path class="st0" d="M147.7,36.1c0,2,0,4,0,6.1c0,0.3-0.1,0.4-0.3,0.3c-0.3,0-0.7,0.1-0.9-0.1s-0.1-0.5-0.1-0.8
			c0-3.9,0-7.7,0-11.6c0-0.3,0.1-0.4,0.4-0.4c0.3,0,0.6-0.1,0.8,0.1c0.2,0.2,0.1,0.5,0.1,0.8C147.7,32.4,147.7,34.3,147.7,36.1z"/>
		<path class="st0" d="M117.7,12.9c-0.7,0-1.2-0.5-1.2-1.1c0-0.8,0.6-1.4,1.3-1.3c0.7,0,1.2,0.6,1.2,1.2
			C119,12.3,118.4,12.9,117.7,12.9z"/>
		<path class="st0" d="M76.7,11.7c0,0.7-0.6,1.2-1.4,1.2c-0.6,0-1.2-0.6-1.2-1.2c0-0.7,0.6-1.2,1.3-1.2C76.2,10.4,76.8,11,76.7,11.7
			z"/>
		<path class="st0" d="M123.4,17.1C123.4,17.2,123.3,17.2,123.4,17.1C123.3,17.1,123.3,17.1,123.4,17.1
			C123.3,17.1,123.3,17.1,123.4,17.1z"/>
		<path class="st0" d="M195,48.3L195,48.3L195,48.3z"/>
		<path class="st0" d="M195,58.5C195,58.5,195,58.5,195,58.5C195,58.5,195,58.5,195,58.5z"/>
		<path class="st0" d="M96.6,53.5C96.5,53.5,96.6,53.5,96.6,53.5C96.6,53.5,96.6,53.5,96.6,53.5z"/>
		<path class="st0" d="M154,53.5C154,53.5,154,53.5,154,53.5C154,53.5,154,53.5,154,53.5z"/>
		<path class="st0" d="M197,40C197,40,197,40,197,40c0-0.3,0-0.4-0.3-0.4c-0.5,0-0.9,0-1.4,0c-0.3,0-0.3,0.1-0.3,0.3
			c0,2.7,0,5.3,0,8c0,0.1,0,0.2,0,0.4c-0.1,0-0.1-0.1-0.2-0.2c-1.6-1.9-3.6-2.9-6.1-3c-1.4,0-2.7,0.2-3.9,0.8
			c-1.1,0.6-2.1,1.4-2.9,2.4c-1,1.3-1.6,2.7-1.6,4.3c-0.1,1.2,0.1,2.4,0.5,3.5c0.8,1.9,2.1,3.3,3.8,4.2c1.6,0.8,3.3,1.1,5,0.8
			c1.7-0.2,3.1-0.9,4.4-2.1c0.3-0.3,0.5-0.6,0.9-0.8c0.1,0.8,0,1.5,0,2.3c0,0.2,0.1,0.3,0.3,0.3c0.5,0,0.9,0,1.4,0
			c0.3,0,0.4-0.1,0.4-0.4C197,53.8,197,46.9,197,40z M188.8,59.6c-3.5,0-6.3-2.8-6.3-6.3c0-3.4,2.9-6.2,6.4-6.2
			c3.6,0,6.4,2.7,6.3,6.3C195.1,57.3,192,59.6,188.8,59.6z"/>
		<path class="st0" d="M110.9,53.1c-0.1-0.5-0.1-0.9-0.2-1.4c-0.6-3-2.3-4.9-5.1-6c-1.4-0.5-3-0.6-4.5-0.4c-0.9,0.1-1.7,0.4-2.5,0.8
			c-1,0.5-1.8,1.2-2.4,2.1c-1.1,1.3-1.7,2.8-1.8,4.5c-0.1,1.1,0,2.2,0.4,3.2c0.3,1,0.8,1.8,1.5,2.6c0.6,0.8,1.3,1.5,2.2,1.9
			c1.7,0.9,3.4,1.1,5.3,0.9c1.2-0.1,2.3-0.4,3.3-1c1.4-0.8,2.4-2,3.2-3.4c0.1-0.1,0.1-0.2-0.1-0.3c-0.4-0.2-0.7-0.4-1.1-0.6
			c-0.4-0.2-0.4-0.2-0.8,0.2c-0.1,0.1-0.2,0.2-0.2,0.3c-0.4,0.6-0.8,1.2-1.4,1.6c-1.6,1.1-3.4,1.6-5.3,1.3c-2.8-0.5-4.8-3-4.8-6
			c0,0,0,0,0,0c0.1,0,0.3,0,0.4,0c4.5,0,9,0,13.6,0C110.9,53.5,111,53.4,110.9,53.1z M108.4,51.8c-1.9,0-3.8,0-5.6,0
			c-1.9,0-3.7,0-5.6,0c-0.4,0-0.4,0-0.3-0.4c0.7-2.1,2.1-3.6,4.3-4.1c2.3-0.5,4.3,0,6,1.6c0.8,0.7,1.1,1.6,1.4,2.6
			C108.7,51.8,108.5,51.8,108.4,51.8z"/>
		<path class="st0" d="M168.3,53.3c-0.1-0.9-0.1-1.8-0.4-2.6c-1-3.1-3.8-5.3-7.2-5.5c-1.5-0.1-2.9,0.1-4.3,0.7
			c-1,0.5-1.9,1.1-2.6,1.9c-0.8,0.9-1.3,1.8-1.7,2.9c-0.4,1.3-0.5,2.7-0.2,4.1c0.3,1.7,1.1,3,2.2,4.2c0.8,0.8,1.8,1.4,2.9,1.8
			c0.8,0.3,1.6,0.4,2.4,0.5c0.7,0,1.4,0.1,2.1-0.1c0.6-0.1,1.2-0.2,1.7-0.4c2-0.7,3.5-2.1,4.5-4c0.1-0.2,0.1-0.2-0.1-0.3
			c-0.4-0.2-0.9-0.4-1.3-0.7c-0.2-0.1-0.3-0.1-0.4,0.1c-0.6,0.8-1.1,1.7-2,2.2c-1.4,0.9-2.9,1.3-4.5,1.2c-1.1-0.1-2-0.4-2.9-1
			c-1.7-1.2-2.5-2.9-2.5-5c0,0,0-0.1,0.1,0c0.1,0,0.3,0,0.4,0c4.5,0,9,0,13.5,0c0.1,0,0.2,0,0.3,0C168.3,53.5,168.3,53.4,168.3,53.3
			z M165.7,51.8c-0.5,0-0.9,0-1.4,0c-1.4,0-2.8,0-4.2,0c-1.9,0-3.7,0-5.6,0c-0.4,0-0.4,0-0.2-0.4c0.6-1.9,1.8-3.3,3.7-3.9
			c2.5-0.9,5.6,0,7.1,2c0.4,0.6,0.7,1.3,0.9,2C166.1,51.7,166,51.8,165.7,51.8z"/>
		<path class="st0" d="M217.5,51.9c-0.5-2.5-1.9-4.4-4.1-5.7c-1.6-0.9-3.4-1.1-5.3-0.9c-2.2,0.3-4,1.3-5.4,3c-1.2,1.5-1.7,3.1-1.7,5
			c0,0.5,0,0.9,0.1,1.4c0.3,1.7,1.1,3.1,2.2,4.3c0.7,0.7,1.5,1.3,2.5,1.7c0.9,0.4,1.8,0.6,2.8,0.7c0.6,0,1.2,0,1.8,0
			c0.9-0.1,1.8-0.3,2.6-0.7c1.7-0.8,2.9-2,3.8-3.7C217.6,55.4,217.8,53.7,217.5,51.9z M209.3,59.5c-3.5,0-6.2-2.7-6.2-6.1
			s2.8-6.2,6.2-6.2s6.2,2.8,6.2,6.3C215.5,56.9,212.8,59.5,209.3,59.5z"/>
		<path class="st0" d="M113.7,11.1c0-0.1,0-0.1,0-0.2c0-0.2-0.1-0.2-0.2-0.2c-0.3,0-0.7,0-1,0c-0.3,0-0.3,0.1-0.3,0.3
			c0,1.9,0,3.9,0,5.8c0,0.1,0,0.2,0,0.5c-1.2-1.5-2.7-2.3-4.5-2.4c-1.8-0.1-3.4,0.5-4.7,1.8c-1.9,1.9-2.4,4.8-1.1,7.1
			c1,1.9,2.7,3,4.8,3.2c2.2,0.2,4-0.6,5.5-2.2c0,0.6,0,1.1,0,1.7c0,0.2,0.1,0.2,0.2,0.2c0.3,0,0.6,0,0.9,0c0.3,0,0.4-0.1,0.4-0.4
			C113.7,21.3,113.7,16.2,113.7,11.1z M107.5,25.7c-2.7,0-4.8-2.1-4.8-4.7s2.1-4.6,4.8-4.6c2.7,0,4.7,2.1,4.7,4.7
			C112.2,23.7,110.2,25.7,107.5,25.7z"/>
		<path class="st0" d="M147.4,20.8c-0.1-0.4-0.1-0.9-0.2-1.3c-0.4-1.9-1.6-3.3-3.4-4.1c-1.2-0.5-2.4-0.6-3.7-0.5
			c-1.1,0.1-2.2,0.5-3,1.3c-1.4,1.2-2.2,2.7-2.2,4.6c0,0.4,0,0.8,0.1,1.2c0.3,1.4,0.9,2.5,1.9,3.5c0.6,0.5,1.2,0.9,2,1.2
			c1.2,0.4,2.5,0.5,3.8,0.2c1.8-0.4,3.2-1.5,4.1-3.1c0.1-0.2,0.1-0.3-0.1-0.4c-0.3-0.1-0.6-0.3-0.8-0.4c-0.2-0.1-0.3-0.1-0.4,0.1
			c-0.4,0.6-0.8,1.2-1.4,1.6c-1.1,0.7-2.3,1.1-3.6,0.9c-1.3-0.1-2.3-0.8-3.1-1.8c-0.6-0.7-0.8-1.6-0.9-2.5c0-0.3,0.1-0.3,0.3-0.3
			c1.7,0,3.4,0,5.1,0c1.7,0,3.4,0,5.1,0C147.3,21.1,147.4,21,147.4,20.8z M145.4,19.8c-1.4,0-2.8,0-4.2,0s-2.8,0-4.2,0
			c-0.2,0-0.3,0-0.2-0.3c1.2-3.8,5.6-4,7.8-1.9c0.5,0.5,0.8,1.2,1,1.9C145.7,19.8,145.6,19.8,145.4,19.8z"/>
		<path class="st0" d="M91.5,21c0-1.8,0-3.6,0-5.5c0-0.3-0.1-0.4-0.3-0.4c-0.3,0-0.6,0-0.9,0c-0.3,0-0.3,0.1-0.3,0.3
			c0,0.5,0,1,0,1.5c0,0.1,0,0.2-0.1,0.2c-0.1,0-0.2-0.1-0.2-0.1c-0.2-0.3-0.5-0.6-0.9-0.9c-1.4-1.1-2.9-1.4-4.6-1.2
			c-1.9,0.2-3.4,1.3-4.4,2.9c-0.9,1.3-1,2.8-0.7,4.3c0.3,1.7,1.2,3,2.6,3.9c1.3,0.9,2.8,1.1,4.4,0.9c1.5-0.2,2.7-0.9,3.7-2
			c0,0,0.1-0.1,0.2-0.1c0.1,0,0.1,0.1,0.1,0.2c0,0.4,0,0.8,0,1.2c0,0.5-0.1,0.4,0.4,0.4c0.2,0,0.5,0,0.7,0c0.3,0,0.4,0,0.4-0.4
			C91.5,24.6,91.5,22.8,91.5,21z M85.3,25.7c-2.6,0-4.8-2.1-4.8-4.7c0-2.6,2.1-4.7,4.8-4.7c2.7,0,4.7,2.1,4.7,4.7
			C90.1,23.7,88.1,25.7,85.3,25.7z"/>
		<path class="st0" d="M132,36.1c0-1.8,0-3.7,0-5.5c0-0.3,0.1-0.7-0.1-0.9s-0.6,0-0.9,0c0,0,0,0-0.1,0c-0.2,0-0.2,0.1-0.2,0.2
			c0,0.2,0,0.5,0,0.8c0,1.3,0,2.6,0,3.9c0,0.1,0.1,0.2-0.1,0.2c-0.1,0-0.1,0-0.1-0.1c-1.1-1.3-2.5-1.8-4.1-1.6
			c-1.4,0.1-2.5,0.7-3.4,1.8c-1,1.2-1.2,2.6-1,4c0.2,1.5,1.2,2.7,2.6,3.4c0.8,0.4,1.7,0.5,2.6,0.5c0.6,0,1.1-0.2,1.7-0.4
			c0.6-0.3,1.2-0.7,1.6-1.2c0.1,0,0.1-0.1,0.2-0.1c0.1,0,0.1,0.1,0.1,0.2c0,0.3,0,0.6,0,0.8c0,0.3,0.1,0.4,0.4,0.4
			c0.2,0,0.4,0,0.6,0c0.3,0,0.3-0.1,0.3-0.3C132,40.2,132,38.1,132,36.1z M127,41.7c-2.1,0-3.8-1.7-3.8-3.8c0-2.1,1.7-3.8,3.8-3.8
			s3.8,1.6,3.8,3.7C130.9,40,129.2,41.7,127,41.7z"/>
		<path class="st0" d="M135.9,38c1.3,0,2.7,0,4,0c1.2,0,2.4,0,3.6,0c0.7,0,0.7,0,0.6-0.7c-0.2-1.7-1-2.9-2.5-3.7
			c-0.9-0.5-2-0.6-3-0.6c-1.4,0.1-2.5,0.7-3.3,1.8c-1.2,1.5-1.4,3.3-0.7,5.1c0.4,0.9,1,1.7,1.8,2.2c1.2,0.8,2.6,0.8,3.9,0.6
			c1.4-0.2,2.4-1,3.2-2.2c0.4-0.6,0.4-0.4-0.2-0.8c-0.1-0.1-0.2-0.1-0.3-0.2c-0.2-0.1-0.3-0.1-0.4,0.1c-0.3,0.4-0.6,0.9-1.1,1.2
			c-1.1,0.8-2.4,1-3.7,0.6c-1.4-0.5-2.2-1.6-2.4-3.1C135.6,38,135.6,38,135.9,38z M135.8,36.7c0.4-1.3,1.3-2.2,2.7-2.5
			c1.5-0.3,2.7,0.1,3.7,1.3c0.3,0.3,0.4,0.7,0.6,1.2c0.1,0.2,0,0.3-0.2,0.3c-0.3,0-0.6,0-0.8,0c-0.8,0-1.6,0-2.5,0
			c-0.6,0-1.1,0-1.6,0s-1.1,0-1.6,0C135.8,37,135.7,36.9,135.8,36.7z"/>
	</g>
	<g>
		<path class="st0" d="M15.1,12.2c-5,7.5-6.9,15.7-5.6,24.6c1.2,7.9,4.7,14.6,10.6,20C28,64,37.4,67.1,48,65.7
			c10.5-1.4,18.6-6.8,24.5-15.6c-1.9,4.4-4.7,8.2-8.2,11.4C59.1,66.3,53,69.3,46,70.4c-8.9,1.3-17.2-0.5-24.8-5.5
			c-6.5-4.3-11-10.2-13.6-17.6c-2.5-7.2-2.6-14.5-0.3-21.7C8.9,20.5,11.5,16,15.1,12.2z"/>
		<g>
			<path class="st0" d="M24.1,4c0.5,0.2,0.8,0.5,1.1,0.9c0.1,0.2,0.3,0.3,0.5,0.5c0.1,0.1,0.2,0.3,0.4,0.4c0.2,0.1,0.2-0.2,0.4-0.3
				c0.5-0.2,1-0.2,1.5,0c0.8,0.3,1.4,0.8,2,1.4c0.3,0.3,0.7,0.5,0.9,0.9c0.6,0.8,1.4,1.2,2.1,1.8c0.5,0.4,0.9,0.7,1.5,1
				c0.8,0.4,1.2,1.1,1.5,1.8c0.2,0.4,0.4,0.8,0.5,1.2c0.2,0.6,0.7,1.1,1,1.7c0,0,0,0,0.1,0.1c0-0.1,0-0.1,0-0.1
				c-0.2-0.9,0-1.8,0.2-2.6c0.1-0.3,0.3-0.6,0.4-0.9c0.4-0.6,1.7-0.7,2.2-0.2c0.1,0.1,0.1,0.2,0.1,0.4c-0.2,0.7-0.2,1.4-0.1,2.1
				c0,0.3,0.3,0.6,0.3,0.8c0,0.8,0.6,1.3,0.9,2c0.4,1,1.2,1.8,1.6,2.8c0.1,0.2,0.3,0.5,0.5,0.6c0.8,0.4,1.3,1.2,1.7,2
				c0.5,1,0.8,2.1,1,3.3c0.1,0.9,0.1,1.7,0,2.6c-0.1,0.6-0.1,1.1,0.2,1.7c0.5,0.9,0.7,1.8,0.7,2.7c0,0.6,0.3,0.9,0.7,1.2
				c0.3,0.3,0.7,0.5,1.1,0.7c0.2,0.1,0.3,0,0.4,0c1.1-0.7,2.2-0.8,3.4-0.7c0.7,0.1,1.3,0.2,1.9,0.5c0.3,0.1,0.6,0.3,0.8,0.6
				c0.3,0.4,0.7,0.5,1.2,0.5c0.2,0,0.4,0,0.7,0.1c-0.2,0-0.3,0.1-0.4,0.1c0.6,0.2,0.9,0.8,1.5,1s1.2,0.3,1.8,0.4
				c0.3,0.1,0.6,0.1,0.9,0.3c0.4,0.3,0.4,0.7,0.3,1.1c-0.1,0.5-0.4,0.8-0.9,0.9c-1.8,0.2-2.9,1.3-3.9,2.7c-1.3,1.8-2.5,3.8-3.6,5.7
				c-0.5,0.8-1,1.6-1.9,2.1C51,50,50.4,50.3,49.7,50c-0.2,0-0.1,0-0.2,0.1c-0.3,0.8-0.7,1.6-1.3,2.3c-0.3,0.4-0.7,0.8-1.1,1.1
				c-0.3,0.2-0.7,0.3-1,0.2c-0.2,0-0.4,0-0.6,0.1c-0.8,0.5-1.7,0.9-2.7,1c-1.2,0.2-1.9-0.7-1.7-1.8c0.1-0.3,0.1-0.7-0.2-1
				c-0.5-0.6-0.3-1.3,0.2-1.8c0.3-0.3,0.6-0.5,0.9-0.8c0.1-0.1,0.1-0.2,0.1-0.3c-0.2-0.8-0.3-1.7-0.4-2.5c-0.1-1.1,0-2.1,0.3-3.1
				c0.1-0.3-0.1-0.4-0.3-0.5c-0.2-0.1-0.1,0.1-0.1,0.2c0,0.5-0.1,0.9-0.4,1.2c-0.3,0.3-0.4,0.6-0.6,0.9c-0.2,0.4-0.4,0.9-0.7,1.3
				c-0.5,0.8-1.2,1.4-2,2c-1.1,0.9-2.3,1.6-3.6,2.2c-1.2,0.5-2.3,0.9-3.6,0.8c-0.8,0-1.7-0.8-2-1.5c-0.1-0.4-0.2-0.8-0.2-1.2
				c0-0.1-0.1-0.2-0.2-0.2c-0.6-0.1-1.1-0.4-1.6-0.9c-0.4-0.3-0.7-0.7-1-1.1c-0.3-0.5-0.5-1-0.5-1.5c0-1.3,0-2.5,0.1-3.8
				c0.1-1.4,0.5-2.8,1.4-4c0.2-0.2,0.2-0.4,0-0.6c-0.9-1.3-1.4-2.8-1.5-4.4c0-0.1,0-0.2-0.1-0.3c-0.9-0.9-1.4-1.9-1.5-3.1
				c0-0.5-0.2-1-0.3-1.5c-0.1-0.3-0.4-0.5-0.6-0.8c-0.5-0.6-0.8-1.2-0.9-1.9c0-0.1-0.1-0.2-0.2-0.3c-0.4-0.6-0.8-1.3-0.7-2
				c0.1-0.7,0-1.5,0.1-2.2c0.1-1,0.1-2,0.4-3c0.1-0.3,0-0.7,0.1-1c0.1-0.4,0.2-0.7,0.4-1.1c0.1-0.1,0-0.2,0-0.4
				c-0.3-1.1-0.3-2.2-0.1-3.3c0.1-0.3,0-0.7,0.1-1c0-0.4,0-0.8,0.6-0.9c0.1,0,0-0.1,0-0.2c-0.1-0.6-0.2-1.3,0.2-1.8
				c0.3-0.3,0.2-0.5,0-0.8c-0.3-0.4-0.5-0.9-0.5-1.5c0-0.5,0.4-1.1,0.9-1.3c0,0,0.1,0,0.1-0.1C23.7,4,23.9,4,24.1,4z M29.8,14.3
				C29.8,14.4,29.9,14.4,29.8,14.3c0,0.1,0,0.1,0.1,0.1C29.9,14.4,29.9,14.4,29.8,14.3C29.9,14.4,29.9,14.3,29.8,14.3
				C29.8,14.3,29.8,14.3,29.8,14.3C29.8,14.3,29.8,14.3,29.8,14.3C29.8,14.3,29.8,14.3,29.8,14.3z M29.5,14.1
				C29.6,14.1,29.6,14.1,29.5,14.1C29.6,14.1,29.6,14.1,29.5,14.1c0-0.1,0-0.1,0-0.1c-0.4-0.5-0.8-0.9-1.2-1.4
				c-0.8-0.9-1.7-1.7-2.4-2.8c-0.1-0.2-0.2-0.5-0.4-0.6c-0.2-0.1-0.4,0.1-0.7,0.2c-0.4,0.1-0.6,0.1-0.9-0.3
				c-0.1-0.2-0.2-0.4-0.4-0.5c-0.2-0.4-0.2-0.5,0.2-0.7c0.2-0.1,0.4-0.1,0.5-0.3c-0.1-0.1-0.3-0.1-0.5-0.1C23.4,7.6,23,8,22.9,8.5
				c0,0.6,0.1,1.1,0.4,1.5c0.2,0.4,0.5,0.7,0.7,1.1c0.1,0.2,0.2,0.2,0.4,0.2c0.8-0.2,1.3,0.2,1.5,0.9c0,0.1,0.1,0.2,0.1,0.3
				c0.3,1.2,0.8,2.4,1.5,3.4c0.6,0.9,1.3,1.8,2.1,2.6c1.2,1.3,1.8,2.8,2.4,4.4c0,0.1,0.1,0.2-0.1,0.2c-0.1,0.1-0.2-0.1-0.2-0.1
				c-0.1-0.2-0.2-0.4-0.2-0.6c-0.5-1.5-1.4-2.9-2.5-4.1c-1.4-1.6-2.7-3.3-3.2-5.4c0-0.1-0.1-0.2-0.2-0.1c-0.3,0.1-0.5,0.2-0.8,0.3
				c-0.2,0.1-0.4,0.1-0.5,0c-0.3-0.3-0.5-0.6-0.5-1.1c0,0,0-0.1,0.1-0.1c0,0,0,0,0-0.1c0,0,0,0-0.1,0c0,0-0.1,0.1-0.1,0.1
				c-0.1,0.1-0.1,0.3-0.2,0.5c-0.1,0.7,0,1.3,0.2,1.9c0.2,0.8,0.7,1.5,1,2.3c0.7,1.5,1.3,3,2.1,4.4c0.1,0.2,0.3,0.4,0.3,0.7
				c0.3,1.7,0.9,3.3,1.7,4.8c0,0.1,0.1,0.2,0.1,0.3c0,0.8,0.1,1.7,0.4,2.4c1.3,3,3,5.8,5.5,8c0.9,0.8,1.8,1.6,3,2.1
				c0.6,0.2,1,0.5,1.3,1.1c0.6,1,1.6,1.6,2.6,2.2c0.2,0.1,0.3,0.1,0.4-0.1c0.8-1.4,1.8-2.7,2.7-4c0.5-0.8,1.1-1.5,1.9-2.1
				c0.2-0.2,0.5-0.4,0.8-0.6c-0.1-0.1-0.2-0.2-0.3-0.2c-0.8-0.6-1.8-1-2.8-1.2c-0.8-0.1-1.3-0.6-1.5-1.4c0-0.2,0-0.3,0.1-0.4
				c0.2-0.1,0.2-0.3,0.1-0.5c-0.5-1-1-1.9-1.5-2.8c-0.2-0.3-0.3-0.6-0.6-1c0.2,0.1,0.3,0.2,0.3,0.3c0.5,0.7,1,1.3,1.7,1.9
				c0.5,0.4,0.9,0.8,1.5,1c0.7,0.2,1.2-0.1,1.1-0.9c0-0.5,0-1-0.1-1.4c-0.1-1.3-0.4-2.6-1-3.8c0-0.1-0.1-0.2,0-0.3
				c0.3-0.6,0.3-1.3,0.3-2c0-1.2-0.5-2.2-1.5-2.8c-0.4-0.2-0.6-0.6-0.8-1c-0.1-0.3-0.2-0.6-0.4-0.8c-0.3-0.4-0.6-0.9-0.8-1.5
				c-0.2-0.4-0.3-0.7-0.6-1c-0.3-0.4-0.5-0.7-0.4-1.2c0-0.1,0-0.3-0.1-0.4c-0.2-0.3-0.3-0.6-0.3-0.9c-0.2,0-0.5,0.3-0.6,0
				c-0.3-0.5-0.4-1-0.3-1.6c0-0.2,0.1-0.2,0.2-0.2c0.2,0,0.4,0,0.6-0.1c0.1,0,0.2-0.1,0.2-0.1c0-0.1-0.1-0.1-0.2-0.1
				c-0.2-0.1-0.4-0.1-0.6-0.1c-0.7,0.1-1,0.6-1.2,1.1c-0.4,1-0.4,2.1-0.1,3.1c0.2,0.5,0.4,0.7,0.9,0.8c0.6,0.1,1.2,0.2,1.8,0.2
				c-0.3,0.2-0.6,0.2-1,0.2c-0.1,0-0.2,0-0.3,0.1c-0.1,0.1,0,0.2,0.1,0.4c0.5,0.7,1.1,1.3,1.9,1.7c1.2,0.6,2.1,1.5,2.8,2.6
				c0,0.1,0.1,0.1,0,0.3c-0.6-0.8-1.4-1.2-2.2-1.6c-0.1,0-0.1-0.1-0.2-0.1c-1.2-0.9-2.3-2-3.4-3.2c-0.2-0.2-0.4-0.3-0.6-0.5
				c-0.2-0.3-0.4-0.7-0.6-1c-0.5-0.8-1.1-1.5-1.3-2.4c0,0,0,0,0,0c-0.2,0.2-0.3,0.4-0.6,0.6c0.1-0.3,0.2-0.6,0.1-0.9
				c-0.1-0.2-0.2-0.4-0.5-0.2c-0.3,0.1-0.6,0.1-0.9-0.1c0.2-0.1,0.3-0.1,0.5-0.2c0.3-0.1,0.3-0.3,0.1-0.6c-0.2-0.2-0.5-0.2-0.7-0.1
				c-0.3,0.1-0.5,0.2-0.8,0.3c0.2-0.6,0.7-0.9,1.2-1.1c-0.3-0.3-0.7-0.4-1-0.6c-0.6-0.5-1.2-1-1.9-1.4c-0.1,0-0.2-0.1-0.2-0.1
				C31.2,9,31,8.8,30.8,8.8c-0.2,0-0.4,0-0.5,0.1c-0.1,0.1-0.3,0.1-0.3,0s0.1-0.2,0.2-0.2c0.4-0.2,0.7-0.1,1.1,0
				c0-0.2-0.1-0.2-0.1-0.3c-0.5-0.6-1.1-1.1-1.8-1.6c-0.2-0.1-0.2-0.1-0.4,0c-0.5,0.4-1,0.7-1.6,0.5c0,0-0.1,0-0.1,0
				c0,0,0,0.1,0,0.1c0.2,0.3,0.5,0.6,0.8,0.8c1,0.7,1.8,1.5,2.5,2.4c0.4,0.5,0.8,0.9,1.3,1.3c0.6,0.4,1.1,1,1.5,1.7
				c0.5,0.8,0.9,1.6,1.4,2.4c1,1.5,2,2.9,2.9,4.3c0.3,0.4,0.5,0.8,0.7,1.3c0,0.1,0.1,0.1,0,0.2c-0.1,0-0.2,0-0.2-0.1
				c-0.2-0.8-0.8-1.4-1.2-2c-1.3-2-2.7-3.9-3.8-6c-0.3-0.6-0.7-1.1-1.3-1.5c-0.5-0.4-0.9-0.8-1.2-1.2c-0.6-0.7-1.2-1.4-1.9-2
				c-0.5-0.4-1-0.8-1.5-1.2c-0.1-0.1-0.2-0.1-0.3,0c-0.3,0.2-0.6,0.3-0.9,0.5c0,0-0.1,0-0.1,0c0.5-0.5,0.2-0.9,0-1.2
				c-0.1-0.1-0.1-0.2-0.2-0.3c-0.2-0.2-0.4-0.4-0.2-0.8c0,0,0-0.1-0.1-0.2c-0.3,0.2-0.6,0.5-1,0.6c-0.2,0.1-0.5,0.1-0.7,0
				c-0.3-0.2-0.5-0.5-0.7-0.8C23,5.1,23,4.9,23.3,4.7c0.2-0.1,0.3-0.2,0.5-0.4c-0.5,0-1,0.5-1.1,1c0,0.7,0.4,1.3,0.8,1.8
				c0.1,0.1,0.2,0.1,0.3,0.1c0.5-0.1,0.9,0.1,1.1,0.6c0.6,0.9,1.1,1.9,1.8,2.7c0.8,0.9,1.6,1.8,2.4,2.6c0.5,0.5,0.9,1.1,1.5,1.5
				c0.3,0.2,0.5,0.4,0.7,0.7c0.4,0.5,0.7,1.1,0.9,1.7c0.7,1.8,1.5,3.5,2.6,5.1c0.1,0.1,0.2,0.2,0,0.3c-0.2,0.1-0.2-0.1-0.3-0.1
				c-0.5-0.7-0.9-1.4-1.3-2.1c0,0,0-0.1-0.1-0.1c0,0,0-0.1-0.1-0.1c0-0.1-0.1-0.2-0.1-0.3c0,0,0-0.1-0.1-0.1c0,0,0-0.1-0.1-0.1
				c0,0,0-0.1-0.1-0.1c-0.3-0.8-0.6-1.5-0.9-2.3c-0.2-0.6-0.5-1.1-0.9-1.5c-0.1-0.2-0.3-0.4-0.5-0.4c0,0-0.1-0.1-0.1,0
				c0,0.1,0,0.1,0.1,0.1c0,0.1,0,0.1-0.1,0.1c-0.7,0-1.1,0.3-1.6,0.8l0,0c0-0.2,0.1-0.4,0.3-0.6c0.3-0.3,0.3-0.7,0.2-1
				c0-0.1-0.1-0.2-0.1-0.3C29.4,13.9,29.4,14,29.5,14.1C29.5,14.1,29.5,14.1,29.5,14.1z M26.6,6.5C26.7,6.6,26.6,6.6,26.6,6.5
				C26.7,6.5,26.7,6.5,26.6,6.5c0-0.2-0.1-0.5,0-0.7c0,0,0.1,0,0,0c0,0,0,0,0,0c-0.4,0.2-0.4,0.2-0.2,0.5
				C26.5,6.4,26.6,6.5,26.6,6.5z M48.4,49.4C48.4,49.4,48.4,49.5,48.4,49.4c-0.3,0.5-0.7,0.9-1.1,1.3c-0.5,0.5-1.1,0.8-1.7,1
				c-0.5,0.2-0.9,0.4-1.3,0.8c-0.2,0.2-0.4,0.3-0.2,0.6c0.2,0.3,1,0.5,1.3,0.3c1.2-0.7,2.2-1.5,2.9-2.7c0.5-0.9,1-1.9,1.6-2.8
				c0.2-0.2,0.3-0.5,0.3-0.8c0,0-0.1,0-0.1,0c-1.9,0.8-3.9,1.6-5.9,2.1c-0.5,0.1-0.7,0.8-0.4,1.2c0.2,0.3,0.5,0.4,0.8,0.5
				c0.6,0,1.1-0.2,1.7-0.4C47,50.3,47.7,49.8,48.4,49.4z M26.3,46.6C26.3,46.6,26.2,46.6,26.3,46.6C26.2,46.6,26.2,46.7,26.3,46.6
				c0.3,0.6,0.7,1,1.2,1.4c0.4,0.3,0.8,0.5,1.3,0.5c0.2,0,0.2,0.1,0.2,0.2c0,0.3,0,0.6,0.2,0.9c0.6,1,1.6,1.5,2.7,1.4
				c2.5-0.3,4.5-1.4,6.2-3.3c0.7-0.8,1.1-1.7,1.3-2.7c0.1-0.8-0.2-1.3-1-1.5c-0.5-0.1-1-0.1-1.5,0c-0.4,0-0.7,0.2-1,0.4
				c-1.6,1.4-3.5,2.5-5.5,3.1c-0.6,0.2-1.2,0.3-1.9,0.2C27.7,47.1,27,47,26.3,46.6z M50.2,34.6c-0.3,0.1-0.6,0.4-0.9,0.6
				c-1.3,1-2.7,1.9-3.7,3.3c-1.2,1.5-2.2,3.2-3.2,4.8c-0.1,0.1-0.1,0.2-0.1,0.3c-0.2,0.6-0.1,1.3-0.1,1.9c0,0.8,0.1,1.5,0.5,2.2
				c0.1,0.1,0.1,0.3,0.3,0.4c0.6,0.2,1.2,0.3,1.8,0.2c-0.9-1-1.4-2.1-1.2-3.1c0.1,0.3,0.2,0.5,0.4,0.8c0.8,1.4,2,2.1,3.6,1.8
				c0.6-0.1,1.2-0.4,1.7-0.7c1-0.4,1-0.4,1.2-1.5c0-0.2,0.1-0.3,0-0.5c-0.4-0.9-0.7-1.8-0.9-2.7c-0.3-0.9-0.9-1.5-1.7-1.8
				c-0.4-0.1-0.7-0.2-1.1-0.3c-0.1,0-0.2,0-0.3-0.1c0.5,0,1-0.1,1.5-0.1c0.8,0,1.3,0.3,1.6,1.1c0.1,0.3,0.2,0.6,0.3,0.8
				c0.3,0.7,0.5,1.3,0.8,2.1c0.2-0.7,0.3-1.2,0.5-1.8c0.2-0.3,0.2-0.6-0.1-0.9c-0.2-0.1-0.2-0.3-0.4-0.5c-0.4-0.7-0.7-1.3-1-2
				c-0.2-0.5-0.4-1-0.8-1.5C49,37.4,49,37.3,49,37.1C49.3,36.2,49.7,35.4,50.2,34.6c0.1,0,0.1,0,0.1,0
				C50.3,34.5,50.3,34.5,50.2,34.6z M26.1,28.6C26.1,28.6,26.1,28.6,26.1,28.6c0-0.1,0.1-0.2,0.2-0.3c0.5-0.6,0.9-1.6,0.3-2.5
				c-0.4-0.5-0.7-1.1-1-1.6c-0.4-0.6-1-1-1.2-1.7c0,0-0.1-0.1-0.1-0.1C24,22.4,24,22.2,24,22c0-0.1,0-0.2,0-0.3c0.1-1,0.1-2-0.2-3
				c-0.1-0.2-0.1-0.3-0.4-0.3c-0.3,0-0.6,0-0.9-0.2c-0.1,0-0.2,0-0.1-0.2c0-0.1,0.1-0.1,0.2-0.1c0.3,0.1,0.6,0.1,0.9,0.1
				c0.1,0,0.2,0,0.2-0.1c0.1-0.5,0.3-1,0.5-1.5c0-0.1,0-0.2-0.1-0.3c-0.3-0.7-0.6-1.4-0.9-2.2c-0.1-0.2-0.4-0.3-0.6-0.1
				c-0.1,0.1-0.1,0.3-0.2,0.5c-0.1,0.4-0.2,0.7-0.4,1c-0.2,0.3-0.3,0.6-0.3,0.9c-0.1,0.5-0.2,1-0.3,1.5c-0.3,1.6-0.2,3.1-0.3,4.7
				c0,0.6,0.3,1.1,0.7,1.6c0.1,0.1,0.2,0.2,0.2,0.3c0.2,1,0.8,1.8,1.4,2.5c0.1,0.1,0.2,0.1,0.2,0.3c0,0.7,0.3,1.4,0.4,2.1
				c0.1,1,0.6,1.7,1.3,2.4c0.1,0.1,0.2,0.2,0.2,0.4c0,1.7,0.6,3.2,1.6,4.5c0.1,0.1,0.2,0.2,0.4,0.3c1.1,0.7,1.9,1.6,2.1,3
				c0,0.2,0,0.5-0.2,0.6c-0.2,0.2-0.3,0.5-0.3,0.8c-0.1,0.9,0.2,1.8,0.6,2.6c0.5,1.2,1.1,1.6,2.4,1.5c1.1-0.1,2.1-0.9,2.4-2
				c0.1-0.2,0.1-0.5-0.1-0.7c-0.2-0.2-0.4,0-0.6,0.1c0.8-1.7,0.5-3.5-0.9-4.9c0,0.1-0.1,0.1-0.1,0.2c-0.2,0.4-0.6,0.6-1.1,0.7
				c-0.2,0-0.3,0-0.2-0.3c0.1-0.3,0.1-0.7,0.2-1c0.1-1.6-0.3-3-1-4.4c-0.3-0.7-0.8-1.2-1.4-1.7c-0.3-0.2-0.7-0.3-1,0
				c-0.3,0.3-0.7,0.5-1.2,0.5c0.1-0.1,0.2-0.2,0.3-0.2c0.4-0.3,0.8-0.6,1-1c0.1-0.1,0.1-0.2,0-0.3c-0.4-0.8-0.9-1.5-1.4-2.3
				c-0.1-0.1-0.2-0.2-0.3,0C26.7,28.4,26.4,28.6,26.1,28.6z M52.3,44c0,0.3,0,0.6,0.2,0.9c0.2,0.4,0.4,0.4,0.8,0.2
				c0.3-0.2,0.5-0.6,0.8-0.9c0.8-1.1,1.4-2.4,2-3.6c0.3-0.7,0.7-1.4,1.3-2c0.5-0.6,1.2-0.9,2-0.8c0.7,0.1,1.3,0.4,1.8,0.8
				c0.1,0.1,0.2,0.2,0.3,0.1c0.3-0.2,0.3-0.6,0.2-0.9c0-0.3-0.2-0.4-0.5-0.5c-0.3-0.1-0.7-0.2-1-0.2c-0.9-0.2-1.8-0.4-2.5-1.1
				c-0.1-0.1-0.2-0.1-0.3,0c-1,0.3-1.8,1-2.3,1.9c-0.2,0.4-0.4,0.7-0.7,1c-0.4,0.4-0.8,0.8-1.1,1.3C52.8,41.5,52.4,42.7,52.3,44z
				 M51.2,34.2c0.4,0.2,0.7,0.2,1.1,0.2c0.3,0,0.6-0.2,0.8,0c0.2,0.2-0.1,0.5-0.2,0.8c-0.8,1.3-1.4,2.7-1.1,4.4
				c0,0.3,0.2,0.6,0.4,0.8c0.1,0.1,0.2,0.1,0.3,0c0.3-0.4,0.6-0.8,1-1.1c0.3-0.2,0.5-0.5,0.7-0.9c0.4-1,1-1.7,1.9-2.4
				c0.2-0.1,0.4-0.3,0.6-0.4c-0.3-0.1-0.6-0.3-0.8-0.5c-0.3-0.4-0.7-0.6-1.2-0.7c-0.4-0.1-0.8-0.2-1.1-0.2
				C52.6,34,51.9,34,51.2,34.2z M25.2,20c-0.3-0.4-0.3-0.8-0.4-1.2c0-0.5,0-1-0.4-1.4c-0.1,0.4-0.2,0.7-0.4,1c0,0.1,0,0.2,0,0.2
				c0.3,0.9,0.4,1.9,0.2,2.9c0,0.2-0.1,0.5,0,0.7c0.2,0.3,0.3,0.6,0.5,0.8c0.8,0.9,1.4,1.9,2.1,2.9c0,0.1,0.1,0.2,0.2,0.2
				c0.1-0.4,0.2-0.8,0.2-1.3c-0.1-1.1-0.5-2.2-0.7-3.2c-0.1-0.4-0.2-0.8-0.5-1.2c-0.2-0.2-0.4-0.3-0.6-0.2c-0.2,0.1-0.4,0.1-0.7,0.1
				c-0.1,0-0.1,0-0.1-0.1c0-0.1,0-0.1,0.1-0.1C24.9,20.1,25.1,20,25.2,20z M26.2,46.6c0.1-0.4,0.1-0.7,0.2-1
				c0.4-2.3,0.9-4.6,1.9-6.8c0-0.1,0.1-0.2,0.1-0.2c-0.1-0.4-0.3-0.8-0.7-1c-0.1-0.1-0.2-0.1-0.3,0.1c-0.2,0.3-0.4,0.5-0.5,0.8
				c-0.6,1.2-0.9,2.4-0.9,3.7c0,1.1-0.1,2.3,0,3.4C25.8,45.8,25.9,46.2,26.2,46.6z M22.4,14.6c0.1-0.2,0.1-0.3,0.1-0.4
				c0.1-0.3,0.3-0.5,0.6-0.5c0.2,0,0.2-0.1,0.2-0.3c-0.1-0.6,0-1.2,0.5-1.7c0.1-0.1,0.1-0.2,0-0.3c-0.3-0.4-0.5-0.8-0.7-1.2
				c0-0.1-0.1-0.2-0.2-0.2c-0.1,0-0.2,0.1-0.3,0.2c0,0.1-0.1,0.2-0.1,0.4c0,0.4,0,0.7-0.1,1.1C22.1,12.6,22.1,13.6,22.4,14.6z
				 M25.2,5.4C25.2,5.4,25.2,5.3,25.2,5.4c-0.2-0.3-0.4-0.5-0.6-0.8c-0.2-0.2-0.4-0.3-0.7,0c-0.1,0.1-0.3,0.2-0.4,0.3
				c-0.2,0.1-0.2,0.3-0.1,0.4c0.4,0.8,0.8,0.9,1.4,0.4C24.9,5.7,25,5.6,25.2,5.4C25.1,5.5,25.2,5.4,25.2,5.4z M27.7,7
				c0.4-0.1,0.8-0.2,1.1-0.5c0.1-0.1,0.1-0.1,0-0.2c-0.4-0.2-0.7-0.5-1.2-0.6c-0.2-0.1-0.4-0.1-0.5,0.1c-0.1,0.2-0.3,0.3-0.1,0.6
				C27.1,6.6,27.3,6.9,27.7,7z M25,11.8c-0.4,0-0.9,0.3-0.9,0.5c0,0.3,0.4,0.7,0.6,0.7c0.3,0,0.9-0.3,0.9-0.4
				C25.6,12.2,25.3,11.8,25,11.8z M24.6,9.2C24.8,9.1,25,9,25.2,9c0.1,0,0.1-0.1,0-0.2c-0.2-0.3-0.4-0.6-0.6-1c0-0.1-0.1-0.1-0.1,0
				C24.3,8,23.8,8,23.8,8.2c0,0.3,0.3,0.5,0.5,0.8C24.3,9.1,24.4,9.2,24.6,9.2z M39.5,12.6c0,0.2,0.1,0.5,0.2,0.8
				c0,0.1,0.1,0.2,0.2,0.2c0.1,0,0.2-0.1,0.2-0.2c0-0.3,0-0.7,0.1-1c0-0.1,0-0.1-0.1-0.2C39.8,12.1,39.5,12.3,39.5,12.6z M29.7,14.2
				C29.7,14.2,29.7,14.2,29.7,14.2C29.7,14.2,29.7,14.2,29.7,14.2C29.7,14.2,29.7,14.2,29.7,14.2C29.7,14.2,29.7,14.2,29.7,14.2z"/>
			<path class="st0" d="M38.3,32.7c-0.5-0.3-0.9-0.6-1.3-0.9c-0.6-0.5-0.7-1.1-0.6-1.8c0.2-0.9-0.1-1.5-0.7-2.1
				c-0.4-0.4-0.9-0.8-1.2-1.3c-0.2-0.2-0.3-0.5-0.3-0.9c0.7,0.9,1.6,1.5,2.5,2.1c0.8,0.5,1,1.1,0.7,2c-0.4,1.1,0,1.9,0.7,2.7
				C38.2,32.4,38.3,32.5,38.3,32.7z"/>
			<path class="st0" d="M42.1,37.6c-0.1-1.1-0.4-2-1-2.8c-0.4-0.6-0.1-1.2,0.8-1.3c-0.3,0.5-0.2,0.9,0.1,1.3c0.3,0.5,0.6,1,0.7,1.6
				C42.7,36.8,42.6,37.3,42.1,37.6z"/>
			<path class="st0" d="M41.9,23.9c-0.3-1.6-0.7-3-1.8-4.2C41.8,20,42.8,22.3,41.9,23.9z"/>
			<path class="st0" d="M33.2,20c0,0,0,0.1,0.1,0.1c0,0,0,0.1,0,0.2c-0.4-0.6-0.8-1.2-1.2-1.7s-0.7-1.2-1.3-1.5
				c0.3-0.2,0.6-0.5,0.7-1c0.4,1.1,0.8,2.1,1.3,3c0,0,0,0.1,0.1,0.1c0,0,0,0.1,0.1,0.1c0,0,0,0.1,0.1,0.1c0,0.1,0.1,0.2,0.1,0.3
				C33.2,20,33.2,20,33.2,20z"/>
			<path class="st0" d="M39,22.8c0.9,1,1.2,2.2,1.2,3.5C39.5,25.2,39,24.1,39,22.8z"/>
			<path class="st0" d="M32.2,14.4c0.4-0.5,0.3-0.6-0.4-1.2c0-0.1,0-0.1,0.1-0.1c0.4-0.1,1.2,0.5,1.2,0.9c0,0.2-0.1,0.4-0.3,0.4
				C32.6,14.4,32.4,14.5,32.2,14.4z"/>
			<path class="st0" d="M29.8,20c0.3,0.7,0.6,1.2,0.9,1.8c-0.5-0.4-0.9-1-1.6-1C29.4,20.6,29.7,20.4,29.8,20z"/>
			<path class="st0" d="M31.1,16.3c-0.2,0.5-0.6,0.8-1.1,1.1c-0.1,0-0.2,0-0.3,0s-0.2-0.1,0-0.2C30.2,16.9,30.6,16.5,31.1,16.3
				L31.1,16.3z"/>
			<path class="st0" d="M27.6,19.4c-0.2,0-0.4,0-0.5-0.2c0,0-0.1-0.1,0-0.2c0,0,0.1-0.1,0.2,0c0.4,0.2,0.8,0,1.1-0.1
				c0.1,0,0.2-0.1,0.3,0c0.1,0.2-0.1,0.2-0.2,0.2C28.2,19.3,27.9,19.4,27.6,19.4z"/>
			<path class="st0" d="M25.2,15.4C25.2,15.4,25.2,15.4,25.2,15.4c-0.2,0-0.3,0-0.3-0.1c0-0.1,0.1-0.2,0.2-0.2c0.4,0,0.7,0,1-0.4
				c0.1-0.1,0.1,0,0.2,0c0.1,0.1,0,0.1,0,0.2C26,15.3,25.6,15.4,25.2,15.4z"/>
			<path class="st0" d="M28.5,18c0,0.2-0.1,0.3-0.2,0.2c-0.3,0-0.6,0.1-0.9,0.2c-0.1,0-0.2,0.1-0.2,0c-0.1-0.1,0-0.2,0.1-0.2
				c0.3-0.1,0.7-0.3,1.1-0.2C28.4,18,28.5,18,28.5,18z"/>
			<path class="st0" d="M31.8,12.4c-0.4,0.2-0.4,0.6-0.4,1c-0.1-0.2-0.2-0.4-0.2-0.6C31.1,12.4,31.2,12.2,31.8,12.4z"/>
			<path class="st0" d="M29.3,16.4c0.2-0.4,0.7-0.8,1.1-1C30.2,15.6,29.6,16.2,29.3,16.4L29.3,16.4z"/>
			<path class="st0" d="M30.4,16.1c0-0.3,0.1-0.5,0.4-0.6c0.1-0.1,0.2,0,0.1,0.1C30.8,15.9,30.7,16,30.4,16.1z"/>
			<path class="st0" d="M28.9,15.9C28.9,15.9,28.9,15.9,28.9,15.9C28.9,15.9,28.9,15.9,28.9,15.9C28.8,15.9,28.9,15.9,28.9,15.9
				C28.9,15.9,28.9,15.9,28.9,15.9z"/>
			<path class="st0" d="M41.4,28.4C41.4,28.4,41.4,28.5,41.4,28.4C41.4,28.4,41.3,28.4,41.4,28.4C41.4,28.4,41.4,28.4,41.4,28.4
				C41.4,28.4,41.4,28.4,41.4,28.4z"/>
			<path class="st0" d="M44.5,22.1C44.5,22.1,44.4,22,44.5,22.1C44.4,22,44.4,22,44.5,22.1C44.5,22,44.5,22,44.5,22.1
				C44.5,22.1,44.5,22.1,44.5,22.1z"/>
			<polygon class="st0" points="40.1,19.7 40.1,19.7 40.1,19.6 			"/>
			<path class="st0" d="M29.3,16.4C29.3,16.4,29.3,16.4,29.3,16.4C29.3,16.4,29.3,16.4,29.3,16.4C29.3,16.4,29.3,16.4,29.3,16.4
				L29.3,16.4z"/>
			<path class="st0" d="M31.1,16.2C31.1,16.2,31.1,16.2,31.1,16.2C31.2,16.2,31.2,16.3,31.1,16.2C31.1,16.3,31.1,16.2,31.1,16.2z"/>
			<path class="st0" d="M22.8,23.6c-0.1,0-0.1,0-0.1-0.1c0-0.1,0-0.1,0.1-0.2c0.3-0.1,0.6-0.3,0.8-0.6c0-0.1,0.1-0.1,0.2,0
				c0.1,0,0.1,0.1,0.1,0.1C23.7,23,23.1,23.6,22.8,23.6z"/>
			<path class="st0" d="M48.4,49.4C48.4,49.4,48.4,49.4,48.4,49.4C48.4,49.4,48.4,49.4,48.4,49.4C48.4,49.5,48.4,49.4,48.4,49.4z"/>
		</g>
	</g>
</g>
</svg>
