<svg width="97" height="96" viewBox="0 0 97 96" fill="none" xmlns="http://www.w3.org/2000/svg">
<g clip-path="url(#clip0_24_80)">
<path d="M72.5 4C61.46 4 52.5 12.96 52.5 24C52.5 35.04 61.46 44 72.5 44C83.54 44 92.5 35.04 92.5 24C92.5 12.96 83.54 4 72.5 4ZM74.5 28H70.5V12H74.5V28ZM74.5 32V36H70.5V32H74.5ZM72.14 52C72.38 52.64 72.5 53.32 72.5 54C72.5 57.32 69.82 60 66.5 60C63.18 60 60.5 57.32 60.5 54C60.5 52.44 61.1 51.04 62.06 49.96C55.54 47.32 50.22 42.32 47.22 36H23.74L27.9 24H44.5C44.5 21.24 44.9 18.52 45.66 16H26.5C23.86 16 21.66 17.68 20.82 20.04L12.5 44V76C12.5 78.2 14.3 80 16.5 80H20.5C22.7 80 24.5 78.2 24.5 76V72H72.5V76C72.5 78.2 74.3 80 76.5 80H80.5C82.7 80 84.5 78.2 84.5 76V49.28C80.3 51.32 75.86 52.04 72.14 52ZM30.5 60C27.18 60 24.5 57.32 24.5 54C24.5 50.68 27.18 48 30.5 48C33.82 48 36.5 50.68 36.5 54C36.5 57.32 33.82 60 30.5 60Z" fill="#888888"/>
</g>
<defs>
<clipPath id="clip0_24_80">
<rect width="96" height="96" fill="white" transform="translate(0.5)"/>
</clipPath>
</defs>
</svg>
