<svg width="251" height="84" viewBox="0 0 251 84" fill="none" xmlns="http://www.w3.org/2000/svg">
<path d="M157.918 29.0587C158.227 30.3294 158.583 31.4932 159.061 32.7449L162.316 41.4581H153.515L156.727 32.8729C157.2 31.5992 157.614 30.2974 157.918 29.0587ZM160.972 22.9281C160.939 22.8411 160.855 22.7821 160.76 22.7821H155.464C155.371 22.7821 155.285 22.8411 155.253 22.929L144.66 51.6519C144.634 51.7219 144.645 51.7919 144.687 51.8518C144.729 51.9218 144.798 51.9518 144.873 51.9518H149.688C149.784 51.9518 149.868 51.8918 149.901 51.8019L152.122 45.6132H163.753L165.975 51.8019C166.006 51.8918 166.092 51.9518 166.188 51.9518H171.484C171.558 51.9518 171.628 51.9118 171.669 51.8518C171.712 51.7919 171.722 51.7119 171.697 51.6519L160.972 22.9281Z" fill="#E41837"/>
<path d="M185.023 30.3544H179.515V22.6261C179.515 22.5541 179.484 22.4881 179.427 22.4451C179.372 22.4021 179.298 22.3881 179.231 22.4061L174.591 23.6389C174.492 23.6659 174.423 23.7558 174.423 23.8578V30.3534L170.492 30.3544C170.433 30.3544 170.374 30.3774 170.332 30.4204C170.289 30.4624 170.265 30.5214 170.265 30.5813V34.1116C170.265 34.1716 170.289 34.2296 170.332 34.2716C170.374 34.3136 170.433 34.3385 170.492 34.3385H174.422V45.6431C174.425 48.0226 174.77 49.7023 175.762 50.802C176.76 51.9018 178.35 52.3317 180.689 52.3317C182.156 52.3317 183.786 52.1217 185.067 51.8618C185.174 51.8418 185.249 51.7518 185.249 51.6418V47.8926C185.249 47.8326 185.217 47.7627 185.163 47.7227C185.107 47.6727 185.035 47.6627 184.967 47.6827C184.159 47.8827 183.122 48.0126 182.178 48.0126C181.103 48.0026 180.495 47.8027 180.119 47.2828C179.732 46.7629 179.556 45.8031 179.559 44.2374V34.3376L185.023 34.3385C185.083 34.3385 185.141 34.3136 185.183 34.2716C185.225 34.2296 185.251 34.1716 185.251 34.1116V30.5813C185.251 30.5214 185.225 30.4624 185.183 30.4204C185.141 30.3774 185.083 30.3544 185.023 30.3544Z" fill="#E41837"/>
<path d="M194.165 20.4415H189.481C189.423 20.4415 189.364 20.4655 189.321 20.5075C189.28 20.5495 189.255 20.6085 189.255 20.6685V51.7218C189.255 51.7818 189.28 51.8417 189.321 51.8817C189.364 51.9317 189.423 51.9517 189.481 51.9517H194.165C194.226 51.9517 194.282 51.9317 194.324 51.8817C194.367 51.8417 194.393 51.7818 194.393 51.7218V20.6685C194.393 20.6085 194.367 20.5495 194.326 20.5075C194.283 20.4655 194.225 20.4415 194.165 20.4415Z" fill="#E41837"/>
<path d="M210.883 42.3799V42.5799C210.883 44.0355 210.362 45.4832 209.463 46.563C208.562 47.6428 207.295 48.3526 205.77 48.3526C204.891 48.3526 204.203 48.1126 203.74 47.7027C203.278 47.2928 203.021 46.713 203.019 45.9831C203.026 45.1333 203.342 44.2765 204.506 43.5756C205.647 42.8958 207.625 42.4009 210.883 42.3799ZM216.019 37.302C216.019 35.1055 215.553 33.2439 214.198 31.9391C212.843 30.6354 210.655 29.9286 207.301 29.9286C204.468 29.9296 201.732 30.5304 199.562 31.3472C199.464 31.3832 199.405 31.4812 199.415 31.5852L199.855 35.4564C199.863 35.5324 199.909 35.5994 199.979 35.6334C200.048 35.6673 200.13 35.6643 200.197 35.6243C201.984 34.5466 204.587 33.9537 206.557 33.9557C208.237 33.9557 209.312 34.2936 209.958 34.9045C210.605 35.5124 210.882 36.4372 210.883 37.7279V38.8636C207.041 38.8906 203.879 39.5935 201.644 40.9052C199.364 42.2369 198.054 44.2405 198.058 46.753C198.056 48.4826 198.673 49.9022 199.781 50.882C200.889 51.8518 202.468 52.3817 204.367 52.3817C207.445 52.3817 209.968 50.922 211.288 48.8325C211.212 49.7523 211.189 50.7521 211.189 51.7219C211.189 51.7819 211.213 51.8418 211.256 51.8818C211.298 51.9318 211.357 51.9518 211.416 51.9518H215.924C215.986 51.9518 216.045 51.9318 216.088 51.8818C216.131 51.8418 216.153 51.7819 216.151 51.7119C216.063 49.9322 216.019 47.7627 216.019 45.9431V37.302Z" fill="#E41837"/>
<path d="M233.527 41.3411C232.109 40.0034 230.047 39.4665 228.369 38.8656C227.528 38.5687 226.786 38.2557 226.274 37.8508C225.762 37.4429 225.475 36.9771 225.471 36.2812C225.475 35.5314 225.753 34.9605 226.335 34.5406C226.918 34.1227 227.835 33.8697 229.098 33.8697C230.474 33.8697 231.99 34.0797 233.28 34.4566C233.347 34.4766 233.42 34.4646 233.476 34.4236C233.532 34.3826 233.566 34.3166 233.57 34.2476L233.701 30.5464C233.705 30.4315 233.623 30.3335 233.51 30.3145C232.189 30.1005 230.692 29.9286 229.404 29.9286C226.413 29.9286 224.119 30.6604 222.562 31.8812C221.004 33.0999 220.204 34.8145 220.205 36.7071C220.202 38.5847 220.827 39.8744 221.765 40.7692C223.173 42.1089 225.22 42.5889 226.882 43.1477C227.715 43.4247 228.448 43.7206 228.952 44.1195C229.457 44.5234 229.743 44.9933 229.747 45.7232C229.743 46.523 229.362 47.1429 228.658 47.5928C227.954 48.0427 226.922 48.3126 225.682 48.3126C224.049 48.3126 222.357 48.0126 221.017 47.6327C220.95 47.6127 220.879 47.6328 220.822 47.6728C220.767 47.7127 220.733 47.7727 220.729 47.8427L220.599 51.7219C220.595 51.8319 220.674 51.9318 220.783 51.9518C222.154 52.2018 223.785 52.3817 225.421 52.3817C228.369 52.3817 230.78 51.6519 232.466 50.3921C234.153 49.1424 235.103 47.3528 235.1 45.3033C235.104 43.4957 234.47 42.2319 233.527 41.3411Z" fill="#E41837"/>
<path d="M80.0967 78.3862H74.5519V68.6083C74.5519 68.5983 74.5459 68.5782 74.5349 68.5682C74.5249 68.5582 74.5099 68.5582 74.4949 68.5582H72.9822C72.9682 68.5582 72.9532 68.5582 72.9422 68.5682C72.9322 68.5782 72.9262 68.5983 72.9262 68.6083V79.7759C72.9262 79.7859 72.9322 79.8058 72.9422 79.8158C72.9532 79.8258 72.9682 79.8358 72.9822 79.8358H80.0967C80.1117 79.8358 80.1257 79.8258 80.1366 79.8158C80.1466 79.8058 80.1537 79.7859 80.1537 79.7759V78.4461C80.1537 78.4261 80.1466 78.4161 80.1366 78.4061C80.1257 78.3961 80.1117 78.3862 80.0967 78.3862Z" fill="#7C6A55"/>
<path d="M86.8363 75.7367V76.7365C86.8343 77.5663 86.4714 78.1362 85.7285 78.5062C85.2836 78.7161 84.8267 78.826 84.3538 78.826C83.9699 78.826 83.642 78.7161 83.3631 78.5062C83.0871 78.2862 82.9522 77.9963 82.9522 77.6163C82.9542 77.1064 83.1511 76.7566 83.557 76.5266C83.796 76.3866 84.1629 76.2866 84.6548 76.2166L85.4816 76.1167C85.7366 76.0867 85.9975 76.0366 86.2634 75.9567C86.4874 75.8967 86.6783 75.8267 86.8363 75.7367ZM89.1558 78.7461C89.0708 78.7661 88.9909 78.7761 88.9169 78.7761C88.8419 78.7861 88.7749 78.796 88.7169 78.796C88.5359 78.796 88.435 78.746 88.395 78.6861C88.345 78.6161 88.317 78.5162 88.317 78.3762V73.6871C88.319 72.9073 88.0111 72.3074 87.4022 71.9375C86.7943 71.5676 86.0055 71.3777 85.0427 71.3777C84.2089 71.3777 83.471 71.5776 82.8372 71.9775C82.1923 72.3874 81.8594 73.1173 81.8354 74.1271C81.8354 74.1471 81.8404 74.157 81.8514 74.167C81.8614 74.177 81.8764 74.187 81.8914 74.187H83.1691C83.1971 74.187 83.2211 74.1671 83.2251 74.1371C83.2741 73.7172 83.3821 73.4072 83.539 73.2072C83.824 72.8373 84.3079 72.6474 85.0117 72.6474C85.6226 72.6474 86.0865 72.7573 86.4034 72.9573C86.7173 73.1573 86.8733 73.4772 86.8743 73.9271C86.8753 74.157 86.8433 74.317 86.7893 74.427C86.6913 74.6369 86.5044 74.7569 86.2015 74.7969L84.0209 75.0668C83.2471 75.1668 82.6162 75.4268 82.1353 75.8467C81.6504 76.2766 81.4095 76.8765 81.4095 77.6464C81.4095 78.3462 81.6554 78.936 82.1453 79.4059C82.6342 79.8758 83.2671 80.1058 84.0319 80.1058H84.0349C84.6708 80.1058 85.2556 79.9658 85.7865 79.6958C86.2654 79.4459 86.6464 79.166 86.9253 78.836C86.9733 79.096 87.0463 79.316 87.1492 79.4759C87.3712 79.8358 87.7391 80.0058 88.223 80.0058C88.417 80.0058 88.5709 79.9958 88.6869 79.9858C88.8029 79.9658 88.9669 79.9258 89.1808 79.8659C89.2058 79.8659 89.2218 79.8358 89.2218 79.8158V78.806C89.2218 78.786 89.2148 78.7761 89.2018 78.7561C89.1888 78.7461 89.1718 78.7461 89.1558 78.7461Z" fill="#7C6A55"/>
<path d="M96.6991 74.9969C96.7341 74.337 96.9521 73.7972 97.352 73.3673C97.7649 72.9273 98.2688 72.7074 98.8787 72.7074C99.7345 72.7074 100.327 73.0273 100.691 73.6671C100.879 73.997 101.004 74.437 101.061 74.9969H96.6991ZM101.913 72.8774C101.625 72.4375 101.206 72.0875 100.659 71.8075C100.113 71.5376 99.5475 71.3977 98.9647 71.3977C97.8139 71.3977 96.8721 71.8176 96.1573 72.6374C95.4424 73.4673 95.0865 74.547 95.0865 75.8567C95.0865 77.1964 95.4394 78.2462 96.1523 78.996C96.8601 79.7459 97.7319 80.1258 98.7527 80.1258C99.1696 80.1258 99.5425 80.0758 99.8755 79.9958C100.492 79.8559 101.012 79.5758 101.432 79.1659C101.683 78.926 101.91 78.6261 102.113 78.2462C102.315 77.8763 102.436 77.5363 102.473 77.2264C102.474 77.2164 102.469 77.1964 102.459 77.1864C102.448 77.1764 102.433 77.1664 102.417 77.1664H101.071C101.046 77.1664 101.023 77.1864 101.016 77.2064C100.92 77.5663 100.757 77.8763 100.526 78.1362C100.114 78.5961 99.5685 78.826 98.8717 78.826C98.1248 78.826 97.587 78.5861 97.236 78.1062C96.8911 77.6263 96.7001 76.9964 96.6681 76.1966H102.531C102.546 76.1966 102.56 76.1966 102.571 76.1866C102.581 76.1766 102.587 76.1567 102.587 76.1467C102.587 75.3169 102.547 74.7169 102.465 74.337C102.374 73.7871 102.19 73.2973 101.913 72.8774Z" fill="#7C6A55"/>
<path d="M113.051 71.3977C112.531 71.3977 112.061 71.5076 111.642 71.7176C111.246 71.9175 110.9 72.2275 110.603 72.6274C110.429 72.3075 110.236 72.0676 110.024 71.8876C109.615 71.5577 109.079 71.3977 108.423 71.3977C107.839 71.3977 107.315 71.5576 106.854 71.8676C106.612 72.0375 106.348 72.2975 106.061 72.6374V71.6376C106.061 71.6276 106.055 71.6076 106.045 71.5976C106.034 71.5876 106.02 71.5776 106.005 71.5776H104.652C104.637 71.5776 104.622 71.5876 104.612 71.5976C104.601 71.6076 104.595 71.6276 104.595 71.6376V79.7759C104.595 79.7859 104.601 79.8058 104.612 79.8158C104.622 79.8258 104.637 79.8358 104.652 79.8358H106.02C106.035 79.8358 106.05 79.8258 106.06 79.8158C106.071 79.8058 106.076 79.7859 106.076 79.7759V75.4568C106.076 74.417 106.288 73.7071 106.694 73.3272C107.109 72.9373 107.563 72.7374 108.065 72.7374C108.621 72.7474 108.98 72.9274 109.177 73.2773C109.301 73.5173 109.368 73.9171 109.368 74.467V79.7759C109.368 79.7859 109.374 79.8058 109.384 79.8158C109.396 79.8258 109.41 79.8358 109.425 79.8358H110.816C110.831 79.8358 110.845 79.8258 110.856 79.8158C110.866 79.8058 110.872 79.7859 110.872 79.7759V75.0368C110.872 74.207 111.065 73.6272 111.436 73.2773C111.815 72.9274 112.26 72.7574 112.785 72.7574C113.166 72.7574 113.482 72.8573 113.742 73.0473C113.992 73.2372 114.126 73.5872 114.126 74.1271V79.7759C114.126 79.7859 114.132 79.8058 114.143 79.8158C114.153 79.8258 114.168 79.8358 114.183 79.8358H115.604C115.619 79.8358 115.634 79.8258 115.645 79.8158C115.655 79.8058 115.661 79.7859 115.661 79.7759V74.357C115.661 73.6272 115.554 73.0473 115.336 72.6174C114.931 71.8076 114.157 71.3977 113.051 71.3977Z" fill="#7C6A55"/>
<path d="M123.621 75.6567C123.621 76.7164 123.41 77.4964 122.997 78.0163C122.58 78.5462 122.068 78.796 121.443 78.796C120.514 78.796 119.893 78.3961 119.543 77.5763C119.358 77.1364 119.265 76.6165 119.265 75.9867C119.265 75.2168 119.359 74.5769 119.544 74.0771C119.892 73.1473 120.512 72.6973 121.443 72.6973C122.371 72.6973 122.992 73.1273 123.344 74.0071C123.528 74.467 123.621 75.0168 123.621 75.6567ZM121.762 71.3777C121.127 71.3777 120.572 71.5376 120.1 71.8476C119.809 72.0275 119.538 72.2775 119.288 72.5874V71.6775C119.288 71.6576 119.282 71.6476 119.272 71.6376C119.261 71.6276 119.247 71.6176 119.231 71.6176H117.894C117.88 71.6176 117.865 71.6276 117.854 71.6376C117.844 71.6476 117.838 71.6576 117.838 71.6775V83.0252C117.838 83.0352 117.844 83.0551 117.854 83.0651C117.865 83.0751 117.88 83.0751 117.894 83.0751H119.262C119.277 83.0751 119.291 83.0751 119.302 83.0651C119.312 83.0551 119.318 83.0352 119.318 83.0252V79.0261C119.581 79.336 119.824 79.5559 120.048 79.6958C120.476 79.9658 121.004 80.1058 121.627 80.1058C122.422 80.1058 123.124 79.8659 123.724 79.376C124.672 78.5961 125.141 77.3064 125.141 75.5268C125.141 74.2071 124.815 73.1773 124.158 72.4574C123.504 71.7476 122.701 71.3777 121.762 71.3777Z" fill="#7C6A55"/>
<path d="M131.058 71.4376C130.911 71.4176 130.807 71.4076 130.745 71.4076C130.683 71.3976 130.639 71.3977 130.611 71.3977C130.055 71.3977 129.559 71.5976 129.136 71.9976C128.819 72.2975 128.589 72.5674 128.447 72.7973V71.6376C128.447 71.6176 128.441 71.6076 128.431 71.5976C128.421 71.5876 128.407 71.5776 128.391 71.5776H127.093C127.078 71.5776 127.063 71.5876 127.052 71.5976C127.042 71.6076 127.037 71.6176 127.037 71.6376V79.7759C127.037 79.7859 127.042 79.8058 127.052 79.8158C127.063 79.8258 127.078 79.8358 127.093 79.8358H128.46C128.475 79.8358 128.489 79.8258 128.499 79.8158C128.51 79.8058 128.516 79.7859 128.516 79.7759V75.0969C128.517 74.527 128.696 74.0371 129.058 73.5972C129.417 73.1673 129.926 72.9573 130.604 72.9573C130.683 72.9573 130.756 72.9573 130.823 72.9573C130.889 72.9673 130.961 72.9773 131.041 72.9873C131.058 72.9973 131.075 72.9873 131.088 72.9773C131.101 72.9673 131.108 72.9473 131.108 72.9373V71.4877C131.108 71.4577 131.086 71.4376 131.058 71.4376Z" fill="#7C6A55"/>
<path d="M133.719 74.9969C133.754 74.337 133.972 73.7972 134.372 73.3673C134.786 72.9273 135.289 72.7074 135.899 72.7074C136.754 72.7074 137.347 73.0273 137.711 73.6671C137.899 73.997 138.024 74.437 138.081 74.9969H133.719ZM138.933 72.8774C138.645 72.4375 138.226 72.0875 137.68 71.8075C137.133 71.5376 136.569 71.3977 135.986 71.3977C134.833 71.3977 133.892 71.8176 133.177 72.6374C132.462 73.4673 132.107 74.547 132.107 75.8567C132.107 77.1964 132.46 78.2462 133.171 78.996C133.88 79.7459 134.751 80.1258 135.774 80.1258C136.189 80.1258 136.564 80.0758 136.896 79.9958C137.512 79.8559 138.032 79.5758 138.453 79.1659C138.703 78.926 138.93 78.6261 139.133 78.2462C139.336 77.8763 139.455 77.5363 139.492 77.2264C139.494 77.2164 139.489 77.1964 139.479 77.1864C139.468 77.1764 139.452 77.1664 139.437 77.1664H138.09C138.065 77.1664 138.043 77.1864 138.035 77.2064C137.94 77.5663 137.778 77.8763 137.546 78.1362C137.135 78.5961 136.589 78.826 135.892 78.826C135.145 78.826 134.607 78.5861 134.256 78.1062C133.911 77.6263 133.72 76.9964 133.688 76.1966H139.551C139.566 76.1966 139.58 76.1966 139.59 76.1866C139.601 76.1766 139.608 76.1567 139.608 76.1467C139.608 75.3169 139.568 74.7169 139.485 74.337C139.395 73.7871 139.209 73.2973 138.933 72.8774Z" fill="#7C6A55"/>
<path d="M147.206 75.7267C146.853 75.4968 146.181 75.2669 145.176 75.0269L144.254 74.8069C143.855 74.7069 143.555 74.597 143.357 74.477C143.01 74.267 142.848 74.007 142.847 73.6771C142.848 73.3672 142.973 73.1272 143.232 72.9373C143.489 72.7573 143.879 72.6573 144.401 72.6573C145.187 72.6573 145.728 72.8373 146.032 73.1772C146.221 73.4172 146.328 73.6872 146.353 73.9771C146.355 74.0071 146.381 74.037 146.409 74.037H147.701C147.731 74.037 147.757 74.0071 147.757 73.9771V73.9271C147.759 73.4072 147.585 72.9173 147.245 72.4674C146.684 71.7276 145.765 71.3677 144.511 71.3677C143.553 71.3677 142.781 71.6076 142.208 72.0975C141.633 72.5774 141.343 73.2273 141.343 74.0071C141.343 74.677 141.655 75.2168 142.267 75.5867C142.609 75.8067 143.133 76.0066 143.842 76.1766L144.947 76.4465C145.537 76.5965 145.934 76.7265 146.123 76.8265C146.422 77.0064 146.563 77.2464 146.564 77.5763C146.563 78.0262 146.381 78.3361 146.004 78.5561C145.62 78.766 145.176 78.8761 144.666 78.8761C143.807 78.8761 143.216 78.6561 142.881 78.2362C142.698 78.0062 142.584 77.6663 142.542 77.2164C142.539 77.1864 142.516 77.1664 142.486 77.1664H141.173C141.157 77.1664 141.142 77.1764 141.131 77.1864C141.121 77.1964 141.114 77.2064 141.116 77.2264C141.151 78.0462 141.431 78.746 141.95 79.3059C142.477 79.8658 143.363 80.1458 144.596 80.1458C145.744 80.1458 146.607 79.8758 147.178 79.3359C147.744 78.806 148.031 78.1561 148.031 77.4163C148.031 76.6565 147.757 76.0866 147.206 75.7267Z" fill="#7C6A55"/>
<path d="M154.835 75.7367V76.7365C154.833 77.5663 154.471 78.1362 153.728 78.5062C153.282 78.7161 152.825 78.826 152.353 78.826C151.968 78.826 151.641 78.7161 151.361 78.5062C151.086 78.2862 150.951 77.9963 150.95 77.6163C150.952 77.1064 151.149 76.7566 151.556 76.5266C151.794 76.3866 152.161 76.2866 152.653 76.2166L153.48 76.1167C153.735 76.0867 153.996 76.0366 154.261 75.9567C154.485 75.8967 154.677 75.8267 154.835 75.7367ZM157.154 78.7461C157.068 78.7661 156.989 78.7761 156.915 78.7761C156.84 78.7861 156.773 78.796 156.715 78.796C156.533 78.796 156.434 78.746 156.393 78.6861C156.344 78.6161 156.314 78.5162 156.314 78.3762V73.6871C156.317 72.9073 156.009 72.3074 155.401 71.9375C154.792 71.5676 154.005 71.3777 153.041 71.3777C152.206 71.3777 151.47 71.5776 150.836 71.9775C150.19 72.3874 149.858 73.1173 149.834 74.1271C149.833 74.1471 149.84 74.157 149.85 74.167C149.86 74.177 149.875 74.187 149.891 74.187H151.167C151.194 74.187 151.22 74.1671 151.224 74.1371C151.272 73.7172 151.38 73.4072 151.538 73.2072C151.821 72.8373 152.307 72.6474 153.011 72.6474C153.621 72.6474 154.085 72.7573 154.403 72.9573C154.716 73.1573 154.872 73.4772 154.872 73.9271C154.872 74.157 154.843 74.317 154.788 74.427C154.689 74.6369 154.503 74.7569 154.2 74.7969L152.019 75.0668C151.245 75.1668 150.615 75.4268 150.135 75.8467C149.648 76.2766 149.407 76.8765 149.408 77.6464C149.407 78.3462 149.654 78.936 150.145 79.4059C150.633 79.8758 151.266 80.1058 152.029 80.1058H152.033C152.669 80.1058 153.255 79.9658 153.784 79.6958C154.265 79.4459 154.645 79.166 154.925 78.836C154.972 79.096 155.046 79.316 155.148 79.4759C155.37 79.8358 155.737 80.0058 156.221 80.0058C156.416 80.0058 156.568 79.9958 156.685 79.9858C156.801 79.9658 156.965 79.9258 157.18 79.8659C157.203 79.8659 157.221 79.8358 157.221 79.8158V78.806C157.221 78.786 157.213 78.7761 157.199 78.7561C157.188 78.7461 157.171 78.7461 157.154 78.7461Z" fill="#7C6A55"/>
<path d="M168.595 75.7367V76.7365C168.592 77.5563 168.231 78.1362 167.487 78.5062C167.042 78.7161 166.585 78.826 166.113 78.826C165.729 78.826 165.402 78.7161 165.122 78.4962C164.847 78.2862 164.712 77.9963 164.711 77.6163C164.712 77.1064 164.909 76.7566 165.317 76.5266C165.556 76.3866 165.922 76.2866 166.413 76.2166L167.24 76.1167C167.496 76.0867 167.756 76.0366 168.022 75.9567C168.246 75.8967 168.437 75.8267 168.595 75.7367ZM170.913 78.7461C170.829 78.7661 170.75 78.7761 170.675 78.7761C170.601 78.7861 170.534 78.796 170.476 78.796C170.294 78.796 170.194 78.746 170.155 78.6861C170.104 78.6161 170.076 78.5162 170.076 78.3762V73.6871C170.078 72.9073 169.77 72.3074 169.162 71.9375C168.553 71.5676 167.765 71.3777 166.801 71.3777C165.967 71.3777 165.232 71.5776 164.596 71.9775C163.95 72.3874 163.618 73.1073 163.595 74.1271C163.593 74.1471 163.6 74.157 163.611 74.167C163.621 74.177 163.635 74.187 163.65 74.187H164.927C164.956 74.187 164.98 74.1671 164.984 74.1371C165.033 73.7172 165.142 73.4072 165.299 73.2072C165.581 72.8373 166.067 72.6474 166.771 72.6474C167.381 72.6474 167.845 72.7573 168.162 72.9573C168.477 73.1573 168.631 73.4772 168.633 73.9271C168.633 74.157 168.604 74.317 168.547 74.427C168.451 74.6369 168.264 74.7469 167.961 74.7969L165.779 75.0668C165.006 75.1668 164.376 75.4268 163.895 75.8467C163.409 76.2766 163.167 76.8765 163.168 77.6464C163.167 78.3462 163.413 78.936 163.906 79.4059C164.394 79.8658 165.027 80.1058 165.79 80.1058H165.793C166.43 80.1058 167.015 79.9658 167.545 79.6958C168.025 79.4459 168.405 79.166 168.684 78.826C168.733 79.096 168.807 79.316 168.908 79.4759C169.131 79.8258 169.498 80.0058 169.983 80.0058C170.176 80.0058 170.329 79.9958 170.445 79.9858C170.562 79.9658 170.726 79.9258 170.94 79.8659C170.964 79.8659 170.98 79.8358 170.98 79.8158V78.806C170.98 78.786 170.973 78.7661 170.96 78.7561C170.947 78.7461 170.931 78.7461 170.913 78.7461Z" fill="#7C6A55"/>
<path d="M185.764 71.3977C185.244 71.3977 184.774 71.5076 184.354 71.7176C183.959 71.9175 183.612 72.2275 183.316 72.6274C183.142 72.3075 182.95 72.0676 182.737 71.8876C182.329 71.5577 181.792 71.3977 181.134 71.3977C180.552 71.3977 180.027 71.5576 179.568 71.8676C179.325 72.0375 179.062 72.2975 178.774 72.6374V71.6376C178.774 71.6276 178.767 71.6076 178.757 71.5976C178.747 71.5876 178.732 71.5776 178.718 71.5776H177.366C177.35 71.5776 177.336 71.5876 177.326 71.5976C177.315 71.6076 177.309 71.6276 177.309 71.6376V79.7759C177.309 79.7859 177.315 79.8058 177.326 79.8158C177.336 79.8258 177.35 79.8358 177.366 79.8358H178.734C178.747 79.8358 178.762 79.8258 178.773 79.8158C178.783 79.8058 178.789 79.7859 178.789 79.7759V75.4568C178.788 74.417 179.001 73.7071 179.406 73.3272C179.822 72.9373 180.277 72.7374 180.777 72.7374C181.333 72.7474 181.695 72.9274 181.891 73.2773C182.015 73.5173 182.081 73.9171 182.081 74.467V79.7759C182.081 79.7859 182.087 79.8058 182.098 79.8158C182.109 79.8258 182.123 79.8358 182.138 79.8358H183.53C183.543 79.8358 183.558 79.8258 183.569 79.8158C183.58 79.8058 183.585 79.7859 183.585 79.7759V75.0368C183.585 74.207 183.778 73.6272 184.149 73.2773C184.527 72.9274 184.973 72.7574 185.497 72.7574C185.878 72.7574 186.195 72.8573 186.455 73.0473C186.705 73.2372 186.839 73.5872 186.84 74.1271V79.7759C186.84 79.7859 186.846 79.8058 186.857 79.8158C186.868 79.8258 186.881 79.8358 186.897 79.8358H188.318C188.332 79.8358 188.347 79.8258 188.357 79.8158C188.367 79.8058 188.374 79.7859 188.374 79.7759V74.357C188.374 73.6272 188.267 73.0473 188.048 72.6174C187.645 71.8076 186.871 71.3977 185.764 71.3977Z" fill="#7C6A55"/>
<path d="M192.113 71.6176H190.72C190.706 71.6176 190.692 71.6276 190.681 71.6376C190.671 71.6476 190.664 71.6575 190.664 71.6775V79.7758C190.664 79.7858 190.671 79.8057 190.681 79.8157C190.692 79.8257 190.706 79.8358 190.72 79.8358H192.113C192.127 79.8358 192.142 79.8257 192.152 79.8157C192.162 79.8057 192.17 79.7858 192.17 79.7758V71.6775C192.17 71.6575 192.162 71.6476 192.152 71.6376C192.142 71.6276 192.127 71.6176 192.113 71.6176Z" fill="#7C6A55"/>
<path d="M190.72 70.2183H192.113C192.126 70.2183 192.142 70.2082 192.152 70.1982C192.161 70.1882 192.169 70.1782 192.169 70.1582V68.6083C192.169 68.5983 192.161 68.5782 192.152 68.5682C192.142 68.5582 192.126 68.5582 192.113 68.5582H190.72C190.705 68.5582 190.692 68.5582 190.681 68.5682C190.67 68.5782 190.663 68.5983 190.663 68.6083V70.1582C190.663 70.1782 190.67 70.1882 190.681 70.1982C190.692 70.2082 190.705 70.2183 190.72 70.2183Z" fill="#7C6A55"/>
<path d="M207.681 71.3977C207.16 71.3977 206.692 71.5076 206.272 71.7176C205.876 71.9175 205.53 72.2275 205.233 72.6274C205.059 72.3075 204.868 72.0676 204.654 71.8876C204.245 71.5577 203.709 71.3977 203.052 71.3977C202.469 71.3977 201.945 71.5576 201.486 71.8676C201.243 72.0375 200.979 72.2975 200.692 72.6374V71.6376C200.692 71.6276 200.686 71.6076 200.675 71.5976C200.665 71.5876 200.65 71.5776 200.635 71.5776H199.282C199.267 71.5776 199.253 71.5876 199.242 71.5976C199.232 71.6076 199.226 71.6176 199.226 71.6376V79.7759C199.226 79.7859 199.232 79.8058 199.242 79.8158C199.253 79.8258 199.267 79.8358 199.282 79.8358H200.651C200.665 79.8358 200.68 79.8258 200.691 79.8158C200.701 79.8058 200.707 79.7859 200.707 79.7759V75.4568C200.706 74.417 200.919 73.7071 201.325 73.3272C201.74 72.9373 202.194 72.7374 202.694 72.7374C203.25 72.7474 203.611 72.9274 203.807 73.2773C203.932 73.5173 203.999 73.9171 203.998 74.467V79.7759C203.998 79.7859 204.004 79.8058 204.016 79.8158C204.026 79.8258 204.04 79.8358 204.055 79.8358H205.447C205.461 79.8358 205.475 79.8258 205.487 79.8158C205.496 79.8058 205.503 79.7859 205.503 79.7759V75.0368C205.503 74.207 205.696 73.6272 206.066 73.2773C206.446 72.9274 206.89 72.7574 207.414 72.7574C207.794 72.7574 208.112 72.8573 208.372 73.0473C208.622 73.2372 208.757 73.5872 208.757 74.1271V79.7759C208.757 79.7859 208.762 79.8058 208.774 79.8158C208.784 79.8258 208.798 79.8358 208.814 79.8358H210.235C210.249 79.8358 210.263 79.8258 210.275 79.8158C210.285 79.8058 210.292 79.7859 210.292 79.7759V74.357C210.291 73.6272 210.185 73.0473 209.966 72.6174C209.562 71.8076 208.787 71.3977 207.681 71.3977Z" fill="#7C6A55"/>
<path d="M215.91 72.7074C216.764 72.7074 217.358 73.0273 217.722 73.6671C217.91 73.997 218.034 74.437 218.093 74.9969H213.729C213.765 74.337 213.983 73.7972 214.383 73.3673C214.797 72.9273 215.301 72.7074 215.91 72.7074ZM218.944 72.8774C218.656 72.4375 218.236 72.0875 217.691 71.8075C217.144 71.5376 216.578 71.3977 215.996 71.3977C214.845 71.3977 213.903 71.8176 213.188 72.6374C212.472 73.4673 212.117 74.547 212.117 75.8567C212.117 77.1964 212.471 78.2462 213.182 78.996C213.89 79.7459 214.764 80.1258 215.785 80.1258C216.201 80.1258 216.574 80.0858 216.905 79.9958C217.522 79.8559 218.044 79.5758 218.464 79.1659C218.714 78.926 218.941 78.6161 219.143 78.2462C219.347 77.8763 219.468 77.5363 219.504 77.2264C219.506 77.2164 219.501 77.1964 219.49 77.1864C219.479 77.1764 219.464 77.1664 219.447 77.1664H218.102C218.077 77.1664 218.054 77.1864 218.048 77.2064C217.951 77.5563 217.788 77.8763 217.556 78.1362C217.145 78.5961 216.599 78.826 215.903 78.826C215.156 78.826 214.618 78.5861 214.267 78.1062C213.922 77.6263 213.732 76.9964 213.699 76.1966H219.562C219.577 76.1966 219.591 76.1966 219.602 76.1866C219.612 76.1766 219.618 76.1567 219.618 76.1467C219.618 75.3169 219.578 74.7169 219.496 74.337C219.405 73.7871 219.222 73.2973 218.944 72.8774Z" fill="#7C6A55"/>
<path d="M222.607 75.8067C222.607 74.7869 222.818 74.0271 223.232 73.5072C223.65 72.9973 224.185 72.7374 224.857 72.7374C225.456 72.7374 225.953 72.9773 226.362 73.4572C226.768 73.9371 226.978 74.6869 226.977 75.7067C226.978 76.7165 226.776 77.4864 226.379 78.0263C225.981 78.5562 225.485 78.816 224.872 78.816C224.072 78.816 223.507 78.5261 223.15 77.9562C222.789 77.3863 222.607 76.6665 222.607 75.8067ZM228.295 68.5183H226.981C226.965 68.5183 226.952 68.5283 226.94 68.5283C226.93 68.5383 226.924 68.5582 226.924 68.5682V72.5275C226.654 72.2075 226.409 71.9775 226.185 71.8375C225.755 71.5676 225.224 71.4376 224.596 71.4376C223.461 71.4376 222.576 71.8776 221.964 72.7674C221.353 73.6472 221.048 74.687 221.048 75.8767C221.048 77.1564 221.382 78.1862 222.054 78.956C222.724 79.7358 223.525 80.1258 224.445 80.1258C225.012 80.1258 225.518 80.0058 225.961 79.7759C226.36 79.5759 226.708 79.2559 227.008 78.826V79.7759C227.008 79.7859 227.013 79.8058 227.024 79.8158C227.036 79.8258 227.048 79.8358 227.065 79.8358H228.295C228.311 79.8358 228.325 79.8258 228.335 79.8158C228.346 79.8058 228.352 79.7859 228.352 79.7759V68.5682C228.352 68.5582 228.346 68.5383 228.336 68.5283C228.325 68.5283 228.311 68.5183 228.295 68.5183Z" fill="#7C6A55"/>
<path d="M232.121 71.6176H230.73C230.715 71.6176 230.699 71.6276 230.689 71.6376C230.679 71.6476 230.672 71.6575 230.672 71.6775V79.7758C230.672 79.7858 230.679 79.8057 230.689 79.8157C230.699 79.8257 230.715 79.8358 230.73 79.8358H232.121C232.135 79.8358 232.15 79.8257 232.161 79.8157C232.171 79.8057 232.178 79.7858 232.178 79.7758V71.6775C232.178 71.6575 232.171 71.6476 232.161 71.6376C232.15 71.6276 232.135 71.6176 232.121 71.6176Z" fill="#7C6A55"/>
<path d="M230.73 70.2183H232.121C232.135 70.2183 232.15 70.2082 232.161 70.1982C232.17 70.1882 232.177 70.1782 232.177 70.1582V68.6083C232.177 68.5983 232.17 68.5782 232.161 68.5682C232.15 68.5582 232.134 68.5582 232.121 68.5582H230.73C230.714 68.5582 230.699 68.5582 230.689 68.5682C230.678 68.5782 230.673 68.5983 230.673 68.6083V70.1582C230.673 70.1782 230.678 70.1882 230.689 70.1982C230.699 70.2082 230.714 70.2183 230.73 70.2183Z" fill="#7C6A55"/>
<path d="M235.501 75.7967C235.499 74.7869 235.712 74.0271 236.126 73.5072C236.544 72.9973 237.079 72.7374 237.75 72.7374C238.351 72.7374 238.848 72.9773 239.257 73.4572C239.662 73.9371 239.871 74.6869 239.871 75.7067C239.871 76.7165 239.669 77.4864 239.273 78.0263C238.875 78.5562 238.379 78.816 237.766 78.816C236.967 78.816 236.401 78.5261 236.044 77.9562C235.682 77.3863 235.501 76.6665 235.501 75.7967ZM241.189 68.5183H239.874C239.859 68.5183 239.846 68.5183 239.835 68.5283C239.824 68.5383 239.817 68.5582 239.817 68.5682V72.5275C239.547 72.2075 239.303 71.9775 239.08 71.8375C238.65 71.5676 238.118 71.4376 237.489 71.4376C236.355 71.4376 235.47 71.8776 234.857 72.7674C234.248 73.6372 233.943 74.687 233.943 75.8767C233.943 77.1564 234.277 78.1862 234.948 78.956C235.616 79.7358 236.419 80.1258 237.339 80.1258C237.906 80.1258 238.413 80.0058 238.856 79.7759C239.254 79.5759 239.602 79.2559 239.902 78.836V79.7759C239.902 79.7859 239.906 79.8058 239.918 79.8158C239.929 79.8258 239.942 79.8358 239.959 79.8358H241.189C241.205 79.8358 241.219 79.8258 241.229 79.8158C241.241 79.8058 241.246 79.7859 241.246 79.7759V68.5682C241.246 68.5582 241.241 68.5383 241.229 68.5283C241.22 68.5283 241.205 68.5183 241.189 68.5183Z" fill="#7C6A55"/>
<path d="M248.614 75.7367V76.7365C248.612 77.5663 248.249 78.1362 247.506 78.5062C247.061 78.7161 246.604 78.826 246.132 78.826C245.747 78.826 245.419 78.7161 245.139 78.5062C244.864 78.2862 244.729 77.9963 244.729 77.6163C244.729 77.1064 244.928 76.7566 245.335 76.5266C245.573 76.3866 245.941 76.2866 246.432 76.2166L247.259 76.1167C247.514 76.0867 247.775 76.0366 248.04 75.9567C248.264 75.8967 248.456 75.8267 248.614 75.7367ZM250.979 78.7561C250.967 78.7461 250.949 78.7461 250.932 78.7461C250.848 78.7661 250.767 78.7761 250.693 78.7761C250.619 78.7861 250.552 78.796 250.494 78.796C250.313 78.796 250.212 78.746 250.172 78.6861C250.123 78.6161 250.094 78.5162 250.094 78.3762V73.6871C250.096 72.9073 249.788 72.3074 249.179 71.9375C248.571 71.5676 247.782 71.3777 246.819 71.3777C245.985 71.3777 245.249 71.5776 244.614 71.9775C243.969 72.3874 243.638 73.1173 243.613 74.1271C243.613 74.1471 243.619 74.157 243.629 74.167C243.638 74.177 243.654 74.187 243.67 74.187H244.945C244.973 74.187 244.999 74.1671 245.001 74.1371C245.051 73.7172 245.159 73.4072 245.315 73.2072C245.6 72.8373 246.085 72.6474 246.79 72.6474C247.4 72.6474 247.864 72.7573 248.18 72.9573C248.495 73.1573 248.65 73.4772 248.652 73.9271C248.652 74.157 248.621 74.317 248.567 74.427C248.468 74.6369 248.282 74.7569 247.979 74.7969L245.798 75.0668C245.024 75.1668 244.394 75.4268 243.913 75.8467C243.427 76.2766 243.187 76.8765 243.187 77.6464C243.187 78.3462 243.433 78.936 243.924 79.4059C244.412 79.8758 245.044 80.1058 245.809 80.1058H245.811C246.448 80.1058 247.034 79.9658 247.564 79.6958C248.044 79.4459 248.425 79.166 248.703 78.836C248.751 79.096 248.825 79.316 248.927 79.4759C249.149 79.8358 249.515 80.0058 250 80.0058C250.194 80.0058 250.348 79.9958 250.465 79.9858C250.581 79.9658 250.744 79.9258 250.958 79.8659C250.982 79.8659 251 79.8358 251 79.8158V78.806C251 78.786 250.992 78.7761 250.979 78.7561Z" fill="#7C6A55"/>
<path d="M14.5409 38.4107C12.5813 36.6761 9.68591 35.8543 7.29943 34.8095C4.90194 33.7597 3.06834 32.536 3.06834 30.0266C3.07734 26.9702 5.34185 24.9586 9.68292 24.9446C11.3666 24.9446 13.2272 25.2406 14.8278 25.7465C14.8718 25.7605 14.9198 25.7525 14.9578 25.7265C14.9968 25.7005 15.0208 25.6585 15.0238 25.6125L15.1937 23.06C15.1987 22.9831 15.1457 22.9141 15.0698 22.9001C13.4061 22.6022 11.7365 22.3872 9.89487 22.3872C6.80454 22.3872 4.33207 23.2251 2.62844 24.6408C0.924802 26.0554 -0.000996376 28.051 3.40902e-06 30.3245C-0.00199616 32.598 0.875816 34.1677 2.17854 35.3155C4.13212 37.0391 7.01849 37.8579 9.39698 38.9156C11.7855 39.9824 13.6151 41.2382 13.6161 43.8136C13.6131 45.8632 12.8122 47.2329 11.5375 48.1227C10.2608 49.0125 8.49217 49.4124 6.57658 49.4024C4.60001 49.4124 2.44148 48.9425 0.753839 48.3526C0.709849 48.3326 0.660856 48.3426 0.620864 48.3626C0.581873 48.3926 0.556885 48.4326 0.553885 48.4826L0.383916 51.202C0.378917 51.282 0.42391 51.342 0.490895 51.362C2.08555 51.8319 4.13911 52.0918 6.32064 52.0918C9.51795 52.0918 12.1184 51.212 13.923 49.6824C15.7286 48.1527 16.7274 45.9831 16.7264 43.4307C16.7284 41.1461 15.8486 39.5675 14.5409 38.4107Z" fill="#7C6A55"/>
<path d="M29.7615 32.3061C33.0648 32.3161 35.0484 34.5096 35.0594 37.7429V37.7899H23.9848C24.6216 34.4096 26.7452 32.3101 29.7615 32.3061ZM29.9315 29.9616C27.0181 29.9596 24.6796 31.1543 23.086 33.1459C21.4903 35.1374 20.6325 37.9149 20.6325 41.0902C20.6325 44.8334 21.4773 47.5928 23.14 49.4124C24.8016 51.232 27.2651 52.0918 30.4354 52.0918H30.4424C33.0978 52.0918 35.4153 51.6219 37.3489 50.8421C37.4109 50.8221 37.4499 50.7621 37.4429 50.6921L37.1879 48.3026C37.1819 48.2626 37.1539 48.2126 37.11 48.1926C37.066 48.1726 37.014 48.1626 36.969 48.1926C35.4653 48.9425 33.0958 49.5324 30.9103 49.5324C28.5778 49.5324 26.8082 48.9025 25.6104 47.5328C24.4097 46.1531 23.7678 44.0056 23.7678 40.9262C23.7678 40.6823 23.7718 40.4323 23.7798 40.1783H37.9738C38.0488 40.1783 38.1117 40.1224 38.1227 40.0474C38.2097 39.4405 38.2097 38.9216 38.2097 38.6227C38.2097 36.3212 37.6079 34.1576 36.2641 32.563C34.9224 30.9683 32.8379 29.9596 29.9315 29.9616Z" fill="#7C6A55"/>
<path d="M44.2206 56.111C44.2186 54.3213 45.4733 52.7617 47.3829 51.7519H53.3026C54.9853 51.7519 56.228 52.1018 57.0398 52.7217C57.8507 53.3515 58.2556 54.2514 58.2576 55.4311C58.2556 56.8908 57.5667 58.1105 56.266 58.9903C54.9653 59.8701 53.0477 60.38 50.6222 60.38C48.7916 60.38 47.178 60.0101 46.0382 59.3003C44.8975 58.5704 44.2226 57.5306 44.2206 56.111ZM51.0901 32.3481C52.9347 32.3491 54.3694 32.8709 55.3462 33.8217C56.322 34.7725 56.8529 36.1622 56.8539 37.9418C56.8519 39.7184 56.272 41.0722 55.2492 41.994C54.2264 42.9138 52.7448 43.4077 50.9202 43.4077C49.0296 43.4077 47.5599 42.9238 46.5651 42.01C45.5703 41.0972 45.0304 39.7424 45.0294 37.9418C45.0384 34.6975 47.2409 32.3591 51.0901 32.3481ZM61.5149 30.3025H54.3374C53.2357 30.0905 52.3728 29.9615 51.2601 29.9615C48.3987 29.9615 46.0812 30.8994 44.4815 32.408C42.8819 33.9137 42.0031 35.9883 42.0041 38.2398C42.0001 40.9392 42.9729 43.1137 44.9924 44.4365C43.6147 45.1533 42.8529 46.383 42.8549 47.7727C42.8529 49.1024 43.6037 50.1722 44.8105 50.8321C42.8459 51.9418 41.2372 53.9014 41.2382 56.5808C41.2352 58.6204 42.128 60.2301 43.6917 61.3098C45.2534 62.3896 47.4739 62.9394 50.1543 62.9394C53.3496 62.9394 56.124 62.1196 58.1066 60.7199C60.0902 59.3302 61.2829 57.3607 61.2819 55.0912C61.2839 53.2515 60.6381 51.7219 59.3993 50.6821C58.1616 49.6324 56.347 49.0625 54.0265 49.0625H49.6864C48.3787 49.0625 47.4169 48.9125 46.805 48.6226C46.1952 48.3126 45.9282 47.9127 45.9222 47.3029C45.9252 46.573 46.3651 45.8732 47.4419 45.4233C48.2667 45.6332 49.4785 45.7932 50.5372 45.7932C53.6286 45.7932 55.9681 44.9033 57.5327 43.4297C59.0984 41.957 59.8792 39.9124 59.8782 37.6439C59.8782 35.5754 59.1474 33.8217 57.9356 32.731H61.5149C61.5549 32.731 61.5929 32.716 61.6209 32.687C61.6498 32.659 61.6658 32.621 61.6658 32.58V30.4525C61.6658 30.4135 61.6498 30.3745 61.6209 30.3465C61.5929 30.3185 61.5539 30.3025 61.5149 30.3025Z" fill="#7C6A55"/>
<path d="M82.9291 30.3015H80.2487C80.2087 30.3015 80.1697 30.3185 80.1417 30.3455C80.1137 30.3745 80.0977 30.4125 80.0977 30.4525V40.5803C80.0977 43.2127 79.4019 45.4932 78.2221 47.1029C77.0414 48.7125 75.3887 49.6623 73.4401 49.6623C71.7875 49.6623 70.7807 49.1625 70.1559 48.2427C69.531 47.3229 69.293 45.9532 69.294 44.1965V30.4525C69.294 30.4125 69.278 30.3745 69.25 30.3465C69.222 30.3185 69.1831 30.3015 69.1431 30.3015H66.4626C66.4227 30.3015 66.3837 30.3185 66.3557 30.3455C66.3277 30.3745 66.3107 30.4125 66.3107 30.4525V45.1733C66.3117 47.0929 66.6856 48.8225 67.7014 50.0922C68.7162 51.362 70.3698 52.1318 72.8453 52.1318H72.8553C76.3325 52.1318 78.963 50.3422 80.3067 47.5228C80.1377 48.8025 80.0557 50.4222 80.0547 51.6019C80.0547 51.6419 80.0717 51.6819 80.0987 51.7019C80.1277 51.7319 80.1657 51.7519 80.2057 51.7519H82.9291C82.9691 51.7519 83.0081 51.7319 83.0361 51.7019C83.0641 51.6819 83.0801 51.6419 83.0801 51.6019V30.4525C83.0801 30.4125 83.0641 30.3745 83.0361 30.3455C83.0081 30.3185 82.9691 30.3015 82.9291 30.3015Z" fill="#7C6A55"/>
<path d="M99.9734 29.9635C99.6225 29.9205 99.2855 29.9005 98.9606 29.9005C95.5473 29.9005 93.5878 32.127 92.605 34.5855C92.8179 33.0998 92.9149 31.5842 92.9149 30.4524C92.9149 30.4134 92.8989 30.3744 92.8709 30.3464C92.8429 30.3184 92.8049 30.3014 92.7639 30.3014H90.0415C90.0015 30.3014 89.9625 30.3184 89.9345 30.3464C89.9066 30.3744 89.8906 30.4134 89.8906 30.4524V51.6018C89.8906 51.6418 89.9066 51.6818 89.9345 51.7018C89.9635 51.7318 90.0015 51.7518 90.0415 51.7518H92.722C92.7619 51.7518 92.7999 51.7318 92.8289 51.7018C92.8569 51.6818 92.8729 51.6418 92.8729 51.6018V43.1746C92.8719 39.8164 93.3558 37.1959 94.3226 35.4363C95.2924 33.6767 96.7141 32.7679 98.6767 32.7639C99.0346 32.7629 99.4105 32.7939 99.8044 32.8568C99.8464 32.8638 99.8894 32.8519 99.9224 32.8249C99.9564 32.7989 99.9764 32.7579 99.9784 32.7149L100.106 30.1195C100.109 30.0405 100.051 29.9725 99.9734 29.9635Z" fill="#7C6A55"/>
<path d="M117.614 40.8342C117.601 46.9929 114.445 49.5623 111.041 49.5723C108.886 49.5723 107.23 48.7925 106.092 47.3129C104.955 45.8432 104.341 43.6646 104.342 40.8762C104.352 35.0195 107.594 32.442 110.999 32.433C113.198 32.435 114.832 33.2209 115.938 34.6555C117.043 36.0912 117.614 38.1958 117.614 40.8342ZM111.297 29.9616C108.087 29.9596 105.558 31.2483 103.847 33.2858C102.134 35.3234 101.232 38.1028 101.232 41.0892C101.232 44.8134 102.131 47.5728 103.76 49.3924C105.388 51.222 107.737 52.0918 110.573 52.0918H110.578C113.723 52.0918 116.26 50.8021 117.998 48.7325C119.736 46.663 120.681 43.8226 120.681 40.7072C120.682 36.7451 119.597 34.0497 117.871 32.3501C116.143 30.6504 113.79 29.9606 111.297 29.9616Z" fill="#7C6A55"/>
<path d="M135.572 41.4591C134.017 40.2093 131.739 39.8054 129.868 39.1906C128.933 38.8876 128.103 38.5317 127.518 38.0179C126.935 37.502 126.583 36.8401 126.581 35.8563C126.583 34.7875 126.984 33.9397 127.781 33.3388C128.578 32.7389 129.79 32.39 131.407 32.39C132.875 32.39 134.438 32.685 135.832 33.1069C135.877 33.1209 135.924 33.1129 135.963 33.0869C136 33.0599 136.023 33.0169 136.026 32.9699L136.153 30.5884C136.157 30.5144 136.107 30.4495 136.035 30.4325C134.662 30.1325 133.121 29.9615 131.791 29.9615C129.149 29.9615 127.094 30.6154 125.692 31.7222C124.29 32.8279 123.553 34.3886 123.555 36.1542C123.552 38.0928 124.244 39.3655 125.279 40.2253C126.827 41.5151 129.097 41.912 130.962 42.5049C131.893 42.7998 132.72 43.1417 133.301 43.6436C133.883 44.1455 134.232 44.7934 134.234 45.7731C134.233 46.9329 133.692 47.8427 132.743 48.4926C131.794 49.1325 130.427 49.4924 128.812 49.4924C127.171 49.4924 125.436 49.1925 124.087 48.8125C124.043 48.8025 123.994 48.8125 123.957 48.8425C123.92 48.8625 123.897 48.9125 123.895 48.9525L123.81 51.5119C123.808 51.5819 123.857 51.6419 123.927 51.6619C125.221 51.9618 126.846 52.0918 128.471 52.0918C131.221 52.0918 133.426 51.3519 134.948 50.1422C136.47 48.9325 137.304 47.2428 137.302 45.3832C137.306 43.5206 136.609 42.2919 135.572 41.4591Z" fill="#7C6A55"/>
<path d="M247.581 5.50181C245.923 6.77953 243.697 7.98124 242.071 8.80707L241.906 8.89207L234.888 0L228.021 8.85106L227.858 8.77509C227.847 8.76509 224.357 7.16842 222.332 5.29982L218.988 9.51193C221.469 12.2893 225.165 14.8618 230.51 16.0965L234.983 10.3827L239.507 16.1005C244.067 15.1807 248.461 12.3833 250.914 9.69988L247.581 5.50181Z" fill="#E41837"/>
<path d="M234.888 0L227.898 8.79309L224.066 13.608C226.786 15.1507 228.372 15.5716 230.524 16.0965L234.984 10.3827L239.519 16.1005C241.994 15.6096 244.48 14.4938 245.772 13.733L241.924 8.88206L241.907 8.89207L234.888 0Z" fill="#FAA634"/>
</svg>
